<?xml version="1.0" standalone="no"?>
<!DOCTYPE svg PUBLIC "-//W3C//DTD SVG 1.1//EN" "http://www.w3.org/Graphics/SVG/1.1/DTD/svg11.dtd" >
<svg xmlns="http://www.w3.org/2000/svg">
<metadata>
Created by FontForge 20120731 at Fri Nov 18 00:42:52 2016
 By admin
</metadata>
<defs>
<font id="iconfont" horiz-adv-x="1024" >
  <font-face 
    font-family="iconfont"
    font-weight="500"
    font-stretch="normal"
    units-per-em="1024"
    panose-1="2 0 6 3 0 0 0 0 0 0"
    ascent="896"
    descent="-128"
    x-height="792"
    bbox="0 -242.571 1506 896.133"
    underline-thickness="0"
    underline-position="0"
    unicode-range="U+0078-F02D9"
  />
<missing-glyph 
 />
    <glyph glyph-name=".notdef" 
 />
    <glyph glyph-name=".null" horiz-adv-x="0" 
 />
    <glyph glyph-name="nonmarkingreturn" horiz-adv-x="341" 
 />
    <glyph glyph-name="x" unicode="x" horiz-adv-x="1001" 
d="M281 543q-27 -1 -53 -1h-83q-18 0 -36.5 -6t-32.5 -18.5t-23 -32t-9 -45.5v-76h912v41q0 16 -0.5 30t-0.5 18q0 13 -5 29t-17 29.5t-31.5 22.5t-49.5 9h-133v-97h-438v97zM955 310v-52q0 -23 0.5 -52t0.5 -58t-10.5 -47.5t-26 -30t-33 -16t-31.5 -4.5q-14 -1 -29.5 -0.5
t-29.5 0.5h-32l-45 128h-439l-44 -128h-29h-34q-20 0 -45 1q-25 0 -41 9.5t-25.5 23t-13.5 29.5t-4 30v167h911zM163 247q-12 0 -21 -8.5t-9 -21.5t9 -21.5t21 -8.5q13 0 22 8.5t9 21.5t-9 21.5t-22 8.5zM316 123q-8 -26 -14 -48q-5 -19 -10.5 -37t-7.5 -25t-3 -15t1 -14.5
t9.5 -10.5t21.5 -4h37h67h81h80h64h36q23 0 34 12t2 38q-5 13 -9.5 30.5t-9.5 34.5q-5 19 -11 39h-368zM336 498v228q0 11 2.5 23t10 21.5t20.5 15.5t34 6h188q31 0 51.5 -14.5t20.5 -52.5v-227h-327z" />
    <glyph glyph-name="appreciate" unicode="&#xe644;" 
d="M96 0q-13 0 -22.5 9.5t-9.5 22.5v448q0 13 9.5 22.5t22.5 9.5t22.5 -9.5t9.5 -22.5v-448q0 -13 -9.5 -22.5t-22.5 -9.5zM864 512h-189q12 28 19.5 83t0.5 107q-5 45 -30 77.5t-63 45.5q-29 10 -56.5 6t-43.5 -21q-12 -12 -22 -35t-15 -41t-14 -52q-17 -70 -28 -89
q-14 -23 -40 -43t-41 -27t-28 -11h-90q-13 0 -22.5 -9.5t-9.5 -22.5v-448q0 -13 9.5 -22.5t22.5 -9.5h87q22 -12 49 -24t83.5 -26t108.5 -14h216q33 0 68.5 13t51 38.5t44 207.5t28.5 220q0 39 -31 68t-65 29zM833 21q-4 -7 -24.5 -14t-40.5 -7h-216q-23 0 -47.5 3.5t-45 9
t-40 12.5t-34 14t-25.5 12.5t-17.5 9l-6.5 3.5v0h-16h-64v384h64q1 0 7 2h1.5h0.5h2l1 0.5l1 0.5q12 4 26 10.5t37 19.5t45.5 34t36.5 46q16 26 35 105q21 85 34 99q3 3 12.5 3t24.5 -4q41 -17 48 -70q5 -46 -4 -98.5t-16 -72t-12 -30.5q-7 -16 2 -31q9 -14 27 -14h235
q8 0 20 -10.5t12 -22.5q0 -33 -26.5 -202.5t-36.5 -191.5z" />
    <glyph glyph-name="check" unicode="&#xe645;" 
d="M888 598q-10 9 -23 8.5t-22 -10.5l-427 -454l-233 230q-10 9 -23 9t-22.5 -9.5t-9.5 -23t10 -22.5l256 -253h1v0q1 -1 7 -4q0 -1 1 -1.5t2 -1.5q6 -2 12 -2t12 3q1 0 2 1t2 1q5 3 7 5v0v0l449 479q9 9 9 22.5t-10 22.5z" />
    <glyph glyph-name="close" unicode="&#xe646;" 
d="M557 383l266 264q9 9 9 22t-9.5 22.5t-22.5 9.5t-23 -9l-265 -264l-263 264q-9 9 -22.5 9t-23 -9t-9.5 -22.5t10 -22.5l263 -264l-265 -264q-10 -9 -10 -22.5t9.5 -22.5t22.5 -9t23 9l265 264l265 -267q10 -9 23 -9t22.5 9.5t9.5 22.5t-9 23z" />
    <glyph glyph-name="edit" unicode="&#xe649;" 
d="M800 -64h-576q-40 0 -68 28t-28 68v640q0 40 28 68t68 28h448q13 0 22.5 -9.5t9.5 -22.5t-9.5 -22.5t-22.5 -9.5h-448q-13 0 -22.5 -9.5t-9.5 -22.5v-640q0 -13 9.5 -22.5t22.5 -9.5h576q13 0 22.5 9.5t9.5 22.5v512q0 13 9.5 22.5t22.5 9.5t22.5 -9.5t9.5 -22.5v-512
q0 -40 -28 -68t-68 -28zM612 448q-13 0 -22.5 9.5t-9.5 22.5t9 23l318 318q10 9 23 9t22.5 -9.5t9.5 -22.5t-9 -23l-318 -318q-10 -9 -23 -9zM480 448h-192q-13 0 -22.5 9.5t-9.5 22.5t9.5 22.5t22.5 9.5h192q13 0 22.5 -9.5t9.5 -22.5t-9.5 -22.5t-22.5 -9.5zM672 256h-384
q-13 0 -22.5 9.5t-9.5 22.5t9.5 22.5t22.5 9.5h384q13 0 22.5 -9.5t9.5 -22.5t-9.5 -22.5t-22.5 -9.5z" />
    <glyph glyph-name="favor" unicode="&#xe64c;" 
d="M767 -64q-8 0 -15 4l-242 134l-242 -133q-17 -10 -33.5 1.5t-13.5 31.5l47 285l-196 202q-14 14 -8 32.5t25 21.5l156 26q13 3 23.5 -5t13 -21t-5.5 -23.5t-21 -13.5l-95 -16l166 -170q11 -12 8 -28l-39 -235l200 110q15 8 31 -1l199 -110l-38 236q-3 16 9 27l164 169
l-225 34q-17 3 -24 18l-100 213l-100 -212q-5 -12 -17.5 -16.5t-24.5 1t-16.5 18t0.5 24.5l130 274q8 18 29 18v0q20 0 29 -18l120 -259l271 -42q19 -3 25 -21.5t-7 -32.5l-197 -201l46 -285q3 -20 -14 -31q-8 -6 -18 -6z" />
    <glyph glyph-name="time" unicode="&#xe65f;" 
d="M512 832q-185 0 -316.5 -131.5t-131.5 -316.5t131.5 -316.5t316.5 -131.5t316.5 131.5t131.5 316.5t-131.5 316.5t-316.5 131.5zM512 0q-104 0 -192.5 51.5t-140 140t-51.5 192.5t51.5 192.5t140 140t192.5 51.5t192.5 -51.5t140 -140t51.5 -192.5t-51.5 -192.5
t-140 -140t-192.5 -51.5zM672 384h-160v224q0 13 -9.5 22.5t-22.5 9.5t-22.5 -9.5t-9.5 -22.5v-256q0 -13 9.5 -22.5t22.5 -9.5h192q13 0 22.5 9.5t9.5 22.5t-9.5 22.5t-22.5 9.5z" />
    <glyph glyph-name="unfold" unicode="&#xe661;" 
d="M890.5 565q-9.5 9 -23 9t-22.5 -9l-328 -331l-332 329q-10 10 -23 10t-22.5 -9.5t-9.5 -23t10 -22.5l353 -350l1 -0.5l1 -0.5v-1q10 -9 23 -9t22 9l350 354q10 9 10 22.5t-9.5 22.5z" />
    <glyph glyph-name="camera" unicode="&#xe665;" 
d="M512 160q-79 0 -135.5 56.5t-56.5 135.5t56.5 135.5t135.5 56.5t135.5 -56.5t56.5 -135.5t-56.5 -135.5t-135.5 -56.5zM512 480q-53 0 -90.5 -37.5t-37.5 -90.5t37.5 -90.5t90.5 -37.5t90.5 37.5t37.5 90.5t-37.5 90.5t-90.5 37.5zM864 0h-704q-40 0 -68 28t-28 68v512
q0 40 28 68t68 28h96q13 0 22.5 -9.5t9.5 -22.5t-9.5 -22.5t-22.5 -9.5h-96q-13 0 -22.5 -9.5t-9.5 -22.5v-512q0 -13 9.5 -22.5t22.5 -9.5h704q13 0 22.5 9.5t9.5 22.5v512q0 13 -9.5 22.5t-22.5 9.5h-352q-13 0 -22.5 9.5t-9.5 22.5t9.5 22.5t22.5 9.5h352q40 0 68 -28
t28 -68v-512q0 -40 -28 -68t-68 -28zM816 560zM768 560q0 20 14 34t34 14t34 -14t14 -34t-14 -34t-34 -14t-34 14t-14 34zM480 768q0 -13 -9.5 -22.5t-22.5 -9.5h-128q-13 0 -22.5 9.5t-9.5 22.5v0q0 13 9.5 22.5t22.5 9.5h128q13 0 22.5 -9.5t9.5 -22.5v0z" />
    <glyph glyph-name="commentfill" unicode="&#xe666;" 
d="M832 768h-640q-40 0 -68 -28t-28 -68v-512q0 -40 28 -68t68 -28h211l86 -87q10 -9 23 -9t23 9l86 87h211q40 0 68 28t28 68v512q0 40 -28 68t-68 28zM336 384q-20 0 -34 14t-14 34t14 34t34 14t34 -14t14 -34t-14 -34t-34 -14zM528 384q-20 0 -34 14t-14 34t14 34t34 14
t34 -14t14 -34t-14 -34t-34 -14zM720 384q-20 0 -34 14t-14 34t14 34t34 14t34 -14t14 -34t-14 -34t-34 -14z" />
    <glyph glyph-name="like" unicode="&#xe669;" 
d="M512 -32q-45 0 -87 41l-319 323q-25 31 -37.5 49.5t-24.5 54t-12 76.5q0 106 75 181t181 75q81 0 147 -47q11 -7 13.5 -20t-5.5 -24t-21 -13.5t-24 5.5q-49 35 -110 35q-79 0 -135.5 -56.5t-56.5 -135.5q0 -43 13 -70t46 -69l316 -319q22 -22 41 -22q18 0 41 23l317 320
q58 62 58 137q0 79 -56.5 135.5t-135.5 56.5q-75 0 -130 -50l-134 -134q-9 -10 -22 -10t-22.5 9.5t-9.5 22.5t9 23l135 135q75 68 174 68q106 0 181 -75t75 -181q0 -100 -76 -182l-317 -320q-42 -42 -87 -42z" />
    <glyph glyph-name="notification" unicode="&#xe66b;" 
d="M526 -28q-31 0 -69 37l-182 183h-83q-40 0 -68 28t-28 68v192q0 40 28 68t68 28h83l182 183q37 37 69 37q20 0 35 -15t15 -45v-704q0 -31 -15 -45.5t-35 -14.5zM192 512q-13 0 -22.5 -9.5t-9.5 -22.5v-192q0 -13 9.5 -22.5t22.5 -9.5h96q13 0 23 -9l192 -192l9 -9v676
q-5 -4 -9 -9l-192 -192q-10 -9 -23 -9h-96zM688 166q-11 0 -19 6q-11 7 -13 20.5t6 23.5l12 18q22 29 32 45t20 45t10 60q0 33 -9 60.5t-18.5 42.5t-29.5 42q-10 13 -17 23q-8 10 -6 23.5t13 21t24 5.5t21 -13q4 -7 16 -21q23 -31 34.5 -49.5t23.5 -55.5t12 -79
q0 -41 -13 -79t-25 -57.5t-36 -51.5l-12 -17q-10 -13 -26 -13zM796 57q-12 0 -21 8q-10 9 -10.5 22t7.5 23q58 66 91 130t33 144t-33 144t-91 130q-8 10 -7.5 23t10.5 22t23.5 8t22.5 -11q63 -73 101 -147.5t38 -168.5t-38 -168.5t-101 -147.5q-10 -11 -25 -11z" />
    <glyph glyph-name="ticket" unicode="&#xe677;" 
d="M430 -61q-35 0 -60 25l-68 70q-9 10 -9 23t10 23q22 21 22.5 52t-21.5 53q-21 21 -52.5 21.5t-52.5 -20.5q-10 -9 -23 -9q-14 0 -23 10l-68 70q-24 25 -23.5 59.5t25.5 58.5l443 435q24 23 59.5 23t59.5 -24l68 -71q9 -9 8.5 -22.5t-9.5 -22.5q-22 -22 -22.5 -52.5
t21.5 -52.5q21 -22 52.5 -22.5t52.5 20.5q8 8 23 9q13 0 23 -9l68 -70q24 -25 23.5 -59.5t-25.5 -59.5l-443 -434q-25 -24 -59 -24zM368 59l48 -50q6 -6 14 -6t14 6l443 434q6 6 6 14t-5 14l-49 50q-32 -20 -71 -20q-58 0 -99 42q-40 41 -39 98q0 40 21 73l-48 50
q-6 5 -14 5.5t-14 -5.5l-444 -434q-5 -6 -5.5 -14t5.5 -14l48 -50q33 20 72 20q58 0 99 -42q40 -41 39 -99q0 -39 -21 -72zM354 313q-13 0 -22.5 9.5t-9.5 22.5t10 22l178 179q10 9 23 9t22.5 -9t9.5 -22.5t-9 -22.5l-179 -179q-10 -9 -23 -9zM450 217q-13 0 -22.5 9.5
t-9.5 22.5t9 23l179 178q9 10 22.5 10t22.5 -9.5t9 -22.5t-9 -23l-179 -178q-9 -10 -22 -10z" />
    <glyph glyph-name="back" unicode="&#xe679;" 
d="M672 -16q-20 0 -34 14l-352 352q-14 14 -14 34t14 34l352 352q14 14 34 14t34 -14t14 -34t-14 -34l-318 -318l318 -318q14 -14 14 -34t-14 -34t-34 -14z" />
    <glyph glyph-name="more" unicode="&#xe684;" 
d="M224 288q-40 0 -68 28t-28 68t28 68t68 28t68 -28t28 -68t-28 -68t-68 -28zM512 288q-40 0 -68 28t-28 68t28 68t68 28t68 -28t28 -68t-28 -68t-68 -28zM800 288q-40 0 -68 28t-28 68t28 68t68 28t68 -28t28 -68t-28 -68t-68 -28z" />
    <glyph glyph-name="scan" unicode="&#xe689;" 
d="M928 352h-832q-13 0 -22.5 9.5t-9.5 22.5t9.5 22.5t22.5 9.5h832q13 0 22.5 -9.5t9.5 -22.5t-9.5 -22.5t-22.5 -9.5zM832 -32h-192q-13 0 -22.5 9.5t-9.5 22.5t9.5 22.5t22.5 9.5h192q13 0 22.5 9.5t9.5 22.5v160q0 13 9.5 22.5t22.5 9.5t22.5 -9.5t9.5 -22.5v-160
q0 -40 -28 -68t-68 -28zM352 -32h-160q-40 0 -68 28t-28 68v160q0 13 9.5 22.5t22.5 9.5t22.5 -9.5t9.5 -22.5v-160q0 -13 9.5 -22.5t22.5 -9.5h160q13 0 22.5 -9.5t9.5 -22.5t-9.5 -22.5t-22.5 -9.5zM128 512q-13 0 -22.5 9.5t-9.5 22.5v160q0 40 28 68t68 28h160
q13 0 22.5 -9.5t9.5 -22.5t-9.5 -22.5t-22.5 -9.5h-160q-13 0 -22.5 -9.5t-9.5 -22.5v-160q0 -13 -9.5 -22.5t-22.5 -9.5zM896 512q-13 0 -22.5 9.5t-9.5 22.5v160q0 13 -9.5 22.5t-22.5 9.5h-192q-13 0 -22.5 9.5t-9.5 22.5t9.5 22.5t22.5 9.5h192q40 0 68 -28t28 -68v-160
q0 -13 -9.5 -22.5t-22.5 -9.5z" />
    <glyph glyph-name="pic" unicode="&#xe69b;" 
d="M320 512zM256 512q0 26 19 45t45 19t45 -19t19 -45t-19 -45t-45 -19t-45 19t-19 45zM843 0h-662q-48 0 -82.5 34.5t-34.5 82.5v534q0 48 34.5 82.5t82.5 34.5h662q48 0 82.5 -34.5t34.5 -82.5v-534q0 -48 -34.5 -82.5t-82.5 -34.5zM181 704q-22 0 -37.5 -15.5
t-15.5 -37.5v-534q0 -22 15.5 -37.5t37.5 -15.5h662q22 0 37.5 15.5t15.5 37.5v534q0 22 -15.5 37.5t-37.5 15.5h-662zM224 127q-5 0 -10 1q-12 4 -18 16t-3 24q3 9 8.5 23t22 45.5t36 55.5t51 42.5t66.5 17.5t92 -18q24 -7 35.5 -10t35.5 -6t39 2q14 2 22.5 17t20.5 53
q8 26 13.5 40.5t20 39t31 38t45.5 24.5t65 11q13 0 22.5 -9.5t9.5 -22.5t-9.5 -22.5t-22.5 -9.5q-28 0 -46.5 -6.5t-31 -23t-19.5 -32.5t-17 -46q-6 -19 -9.5 -29.5t-12 -27.5t-17 -26.5t-23 -18.5t-32.5 -12q-26 -2 -39.5 -3t-36 3t-33 7t-29.5 9q-50 14 -76 15h-1
q-22 0 -43 -15.5t-36 -39.5t-25 -45t-16 -38q-6 -23 -30 -23z" />
    <glyph glyph-name="filter" unicode="&#xe69c;" 
d="M608.5 -64q-13.5 0 -23 9.5t-9.5 22.5v480q0 12 9 21l208 235h-563l210 -235q8 -9 8 -21v-289l51 -41q10 -8 11.5 -21.5t-7 -23.5t-21.5 -11.5t-24 6.5l-62 51q-12 10 -12 25v292l-249 279q-14 15 -5.5 34t29.5 19h706q21 0 29.5 -19t-5.5 -34l-249 -279v-468
q0 -13 -9 -22.5t-22.5 -9.5z" />
    <glyph glyph-name="right" unicode="&#xe6a3;" 
d="M761 364l1 1t1 2q7 13 4.5 28.5t-14.5 26.5l-353 334q-15 14 -34.5 13.5t-33.5 -15t-13 -34.5t15 -34l317 -299l-316 -305q-14 -13 -14.5 -33t13.5 -35q14 -14 35 -14q19 0 33 13l350 338l0.5 1t1 1t1 0.5l0.5 0.5q1 2 6 10z" />
    <glyph glyph-name="refresh" unicode="&#xe6a4;" 
d="M939.5 639.5q-12.5 4.5 -24.5 -1t-16 -18.5l-25 -69q-45 100 -133 166q-91 68 -202.5 80.5t-214.5 -30.5t-172 -134q-50 -66 -70.5 -145.5t-9.5 -162.5q12 -82 54.5 -153t110.5 -121q112 -83 251 -83q98 0 187.5 43t149.5 123q55 73 74 161q3 13 -4 24t-20 14t-24 -4.5
t-14 -20.5q-16 -74 -63 -135q-58 -77 -145.5 -113.5t-182 -25.5t-171.5 68q-57 43 -93 102.5t-46 129.5q-21 144 67 261q58 76 145.5 113t182 26t172.5 -68q87 -65 123 -167l-110 43q-13 5 -25 -0.5t-17 -18t0.5 -24.5t17.5 -17l162 -63q6 -2 12 -2h0.5h0.5q1 0 2 -0.5
t2 -0.5q23 0 30 22l58 161q4 12 -1.5 24t-18 16.5z" />
    <glyph glyph-name="cart" unicode="&#xe6af;" 
d="M353 64q-27 0 -45.5 -18.5t-18.5 -45.5t18.5 -45.5t45 -18.5t45.5 18.5t19 45.5t-19 45.5t-45 18.5v0zM801 64q-27 0 -45.5 -18.5t-18.5 -45.5t18.5 -45.5t45 -18.5t45.5 18.5t19 45.5t-19 45.5t-45 18.5v0zM864 96h-520q-34 0 -61 24t-31 59l-54 382l-31 179
q-2 11 -11 19.5t-19 8.5h-41q-13 0 -22.5 9.5t-9.5 22.5t9.5 22.5t22.5 9.5h41q35 0 62 -24t31 -59l31 -178l54 -384q2 -11 10.5 -19t18.5 -8h520q13 0 22.5 -9.5t9.5 -22.5t-9.5 -22.5t-22.5 -9.5zM384 224q-12 0 -21.5 8.5t-10.5 21.5t8 23t22 11l434 32q12 0 21 8t10 19
l51 288q2 18 -9 30q-6 7 -15 7h-554q-13 0 -22.5 9.5t-9.5 22.5t9.5 22.5t22.5 9.5h554q38 0 63 -29q30 -33 24 -81l-51 -289q-4 -33 -30.5 -57t-61.5 -24l-431 -32h-3z" />
    <glyph glyph-name="delete" unicode="&#xe6b4;" 
d="M608 128q-13 0 -22.5 9.5t-9.5 22.5v352q0 13 9.5 22.5t22.5 9.5t22.5 -9.5t9.5 -22.5v-352q0 -13 -9.5 -22.5t-22.5 -9.5zM416 128q-13 0 -22.5 9.5t-9.5 22.5v352q0 13 9.5 22.5t22.5 9.5t22.5 -9.5t9.5 -22.5v-352q0 -13 -9.5 -22.5t-22.5 -9.5zM928 672h-160v64
q0 40 -28 68t-67 28h-321q-40 0 -68 -28t-28 -68v-64h-160q-13 0 -22.5 -9.5t-9.5 -22.5t9.5 -22.5t22.5 -9.5h832q13 0 22.5 9.5t9.5 22.5t-9.5 22.5t-22.5 9.5zM320 736q0 13 9.5 22.5t22.5 9.5h321q13 0 22 -9.5t9 -22.5v-64h-384v64zM736 -64h-448q-40 0 -68 28t-28 68
v480q0 14 9.5 23t22.5 9t22.5 -9t9.5 -23v-480q0 -13 9.5 -22.5t22.5 -9.5h448q13 0 22.5 9.5t9.5 22.5v479q0 13 9.5 22.5t22.5 9.5t22.5 -9.5t9.5 -22.5v-479q0 -40 -28 -68t-68 -28z" />
    <glyph glyph-name="home" unicode="&#xe6b8;" 
d="M980 491l-406 321q-26 21 -62 21t-62 -21l-406 -321q-10 -8 -11.5 -21t6.5 -23.5t21 -12t23 6.5l13 11v-388q0 -40 34.5 -68t74.5 -28h640q37 0 60 26.5t23 69.5v386l12 -9q8 -7 20 -7q15 0 25 12q8 11 6.5 24t-11.5 21zM480 32v177q0 14 32 14t32 -14v-177h-64zM864 64
q0 -32 -19 -32h-236l-0.5 0.5l-0.5 0.5v176q0 31 -25 54.5t-71 23.5t-71 -23.5t-25 -54.5v-176l0.5 -0.5l0.5 -0.5h-212q-15 0 -30 10.5t-15 21.5v438l329 260q9 7 22.5 7t22.5 -7l330 -261v-437z" />
    <glyph glyph-name="message" unicode="&#xe6bc;" 
d="M640 480h-256q-13 0 -22.5 9.5t-9.5 22.5t9.5 22.5t22.5 9.5h256q13 0 22.5 -9.5t9.5 -22.5t-9.5 -22.5t-22.5 -9.5zM579 352h-195q-13 0 -22.5 9.5t-9.5 22.5t9.5 22.5t22.5 9.5h195q14 0 23 -9.5t9 -22.5t-9 -22.5t-23 -9.5zM962 448q0 104 -60 192.5t-163 140
t-224.5 51.5t-225 -51.5t-163.5 -140t-60 -192.5q0 -87 45.5 -166t127.5 -135q11 -7 24 -4.5t20.5 13.5t5 24t-13.5 20q-69 47 -107 112t-38 136q0 87 51.5 160.5t140 116.5t192.5 43t192.5 -43t140 -116.5t51.5 -160.5t-51.5 -160.5t-140 -116.5t-192.5 -43q-1 0 -3 -0.5
l-2 -0.5q-12 2 -22 -3.5t-14 -16.5q-9 -26 -94 -74q17 58 3 79q-10 16 -30 16q-13 0 -22.5 -9.5t-9.5 -22.5q0 -9 5 -16q-6 -33 -33 -100q-9 -20 7 -35q9 -9 22 -9q7 0 13 3q144 64 188 125q120 2 221 53.5t160 139.5t59 191z" />
    <glyph glyph-name="heimingdan" unicode="&#xe73d;" 
d="M445 423q79 0 134.5 50.5t55.5 121.5t-55.5 121.5t-134.5 50.5t-135 -50.5t-56 -121.5t56 -121.5t135 -50.5zM661 302q-36 34 -99 52t-121 20q-102 3 -189 -61t-137.5 -175t-50.5 -241v-27h448q-32 32 -37 75q0 44 2 75.5t8 68t18.5 64t32.5 55.5t51.5 51.5t73.5 42.5z
M755 244q-85 0 -145.5 -60t-60.5 -145.5t60.5 -145.5t145.5 -60t145 60t60 145.5t-60 145.5t-145 60zM755 -108q-61 0 -104 43t-43 104q0 48 30 87l205 -204q-40 -30 -88 -30zM884 -30l-198 198q34 17 69 17q61 0 104 -43t43 -103q0 -36 -18 -69z" />
    <glyph glyph-name="link" unicode="&#xe6bf;" 
d="M546 256h-1q-22 0 -45 26l-37 43q-9 10 -8.5 24t10.5 23t23 8.5t22 -10.5l37 -40l174 179l-50 55l-72 -75q-10 -9 -23 -9t-22.5 9t-9.5 22.5t9 22.5l74 75q18 18 45 18t45 -19l50 -53q18 -19 17.5 -45.5t-18.5 -44.5l-176 -185q-24 -24 -44 -24zM352.5 141
q-26.5 0 -45.5 19l-51 49q-19 18 -19 45t19 45l179 187q25 26 45 26v0q20 0 45 -25l42 -45q9 -9 9 -23.5t-9.5 -23.5t-22.5 -9.5t-23 8.5l-41 41l-179 -181l51 -48l75 73q9 9 22 9t22.5 -9.5t9.5 -22.5t-9 -23l-75 -73q-18 -19 -44.5 -19zM512 -64q-185 0 -316.5 131.5
t-131.5 316.5t131.5 316.5t316.5 131.5t316.5 -131.5t131.5 -316.5t-131.5 -316.5t-316.5 -131.5zM512 768q-159 0 -271.5 -112.5t-112.5 -271.5t112.5 -271.5t271.5 -112.5t271.5 112.5t112.5 271.5t-112.5 271.5t-271.5 112.5z" />
    <glyph glyph-name="lock" unicode="&#xe6c0;" 
d="M512 128q-13 0 -22.5 9.5t-9.5 22.5v96q0 13 9.5 22.5t22.5 9.5t22.5 -9.5t9.5 -22.5v-96q0 -13 -9.5 -22.5t-22.5 -9.5zM832 -64h-640q-40 0 -68 28t-28 68v352q0 40 28 68t68 28h640q40 0 68 -28t28 -68v-352q0 -40 -28 -68t-68 -28zM192 416q-13 0 -22.5 -9.5
t-9.5 -22.5v-352q0 -13 9.5 -22.5t22.5 -9.5h640q13 0 22.5 9.5t9.5 22.5v352q0 13 -9.5 22.5t-22.5 9.5h-640zM736 416q-13 0 -22.5 9.5t-9.5 22.5v130q0 78 -61 134t-133 56q-74 0 -132 -52.5t-58 -137.5v-130q0 -13 -9.5 -22.5t-22.5 -9.5t-22.5 9.5t-9.5 22.5v130
q0 76 38 135.5t95 89t121 29.5q62 0 121 -31.5t98 -91t39 -131.5v-130q0 -13 -9.5 -22.5t-22.5 -9.5z" />
    <glyph glyph-name="info" unicode="&#xe6e5;" 
d="M512 -62q-91 0 -173.5 35.5t-142 95t-95 142t-35.5 173.5t35.5 173.5t95 142t142 95t173.5 35.5t173.5 -35.5t142 -95t95 -142t35.5 -173.5t-35.5 -173.5t-95 -142t-142 -95t-173.5 -35.5zM512 766q-104 0 -192 -51t-139 -139t-51 -192t51 -192t139 -139t192 -51t192 51
t139 139t51 192t-51 192t-139 139t-192 51zM512 592zM464 592q0 20 14 34t34 14t34 -14t14 -34t-14 -34t-34 -14t-34 14t-14 34zM512 128q-13 0 -22.5 9.5t-9.5 22.5v288q0 13 9.5 22.5t22.5 9.5t22.5 -9.5t9.5 -22.5v-288q0 -13 -9.5 -22.5t-22.5 -9.5z" />
    <glyph glyph-name="sanjiao2" unicode="&#xf0121;" 
d="M951 77h-878l439 614z" />
    <glyph glyph-name="sanjiao1" unicode="&#xf0122;" 
d="M512 77l-439 614h878z" />
    <glyph glyph-name="sanjiao4" unicode="&#xf0123;" 
d="M819 823v-878l-614 439z" />
    <glyph glyph-name="sanjiao3" unicode="&#xf0124;" 
d="M205 -55v878l614 -439z" />
    <glyph glyph-name="new" unicode="&#xe71e;" 
d="M963 450q0 104 -60 192.5t-163 140t-224.5 51.5t-225 -51.5t-163.5 -140t-60 -192.5q0 -88 45.5 -166.5t127.5 -134.5q11 -7 24 -4.5t20.5 13t5 24t-13.5 20.5q-69 47 -107 111.5t-38 136.5q0 86 51.5 160t140 117t192.5 43t192.5 -43t140 -117t51.5 -160.5t-51.5 -160.5
t-140 -116.5t-192.5 -42.5q-1 0 -3 -0.5l-2 -0.5q-12 2 -22 -4t-14 -17q-9 -25 -94 -73q17 58 3 79q-11 15 -30 15q-13 0 -22.5 -9t-9.5 -23q0 -8 4 -15q-5 -33 -33 -100q-8 -20 8 -35q9 -9 22 -9q7 0 13 2q144 65 188 126q119 2 220.5 53.5t160.5 139.5t59 191zM343 291
q6 -3 14 -3q20 0 29 17l71 140l92 -142q9 -15 26 -15h1q17 0 26 14l129 189q8 11 5.5 24t-13.5 20.5t-24 5t-21 -13.5l-101 -149l-96 148q-9 15 -28 15q-19 -1 -27 -18l-97 -188q-6 -12 -2 -24.5t16 -19.5z" />
    <glyph glyph-name="pullleft" unicode="&#xe71f;" 
d="M512 -64q-185 0 -316.5 131.5t-131.5 316.5t131.5 316.5t316.5 131.5t316.5 -131.5t131.5 -316.5t-131.5 -316.5t-316.5 -131.5zM512 768q-159 0 -271.5 -112.5t-112.5 -271.5t112.5 -271.5t271.5 -112.5t271.5 112.5t112.5 271.5t-112.5 271.5t-271.5 112.5zM290 372
l1 -1q2 -6 6 -10v0v0l159 -159q10 -10 23 -10t22.5 9.5t9.5 22.5t-9 23l-104 103h305q14 0 23 9.5t9 23t-9 22.5t-23 9h-306l106 105q9 10 9 23t-9 22.5t-23 9.5q-13 0 -22 -9l-161 -159q-15 -15 -7 -34z" />
    <glyph glyph-name="pullright" unicode="&#xe720;" 
d="M512 -64q-185 0 -316.5 131.5t-131.5 316.5t131.5 316.5t316.5 131.5t316.5 -131.5t131.5 -316.5t-131.5 -316.5t-316.5 -131.5zM512 768q-159 0 -271.5 -112.5t-112.5 -271.5t112.5 -271.5t271.5 -112.5t271.5 112.5t112.5 271.5t-112.5 271.5t-271.5 112.5zM733 395v0
q-3 6 -7 10v0v0l-159 160q-9 9 -22.5 9t-23 -9t-9.5 -22.5t10 -22.5l103 -104h-305q-13 0 -22.5 -9.5t-9.5 -22.5t9.5 -22.5t22.5 -9.5h307l-106 -105q-10 -9 -10 -22.5t9.5 -23t22.5 -9.5t23 10l160 158q15 15 7 35z" />
    <glyph glyph-name="rectangle390" unicode="&#xe600;" horiz-adv-x="1025" 
d="M934 216v416q0 67 -47.5 114.5t-114.5 47.5h-520q-67 0 -114.5 -47.5t-47.5 -114.5v-520q0 -67 47.5 -114.5t114.5 -47.5h520q59 0 104 38t55 96q-223 96 -326 145q-59 -71 -122 -107t-146 -36q-87 0 -140 46.5t-46 113.5q3 20 9 38t21.5 39t38.5 35t61.5 21t87.5 3
q22 -2 43 -5.5l33 -5.5t34.5 -8.5t28 -8t34.5 -11.5t33 -11q30 54 47 115h-327v32h162v59h-198v35h198v84q2 14 16 14h81v-98h211v-35h-211v-59h172q-23 -95 -70 -175q23 -8 92 -30t128 -40l58 -18v0zM324 142q-44 0 -74.5 12t-43 31t-17 36t-2.5 31q6 28 35 51.5t76 23.5
q108 0 234 -62q-95 -123 -208 -123z" />
    <glyph glyph-name="icon" unicode="&#xe602;" 
d="M512 -107q-223 0 -325 80.5t-102 247.5q0 137 93 263t224 172h220q131 -46 224 -172t93 -263q0 -167 -102 -247.5t-325 -80.5zM630 256v0q15 0 25.5 10.5t10.5 25.5t-10.5 26t-25.5 11v0h-73v1v1l86 88q17 19 -7 43q-11 11 -26 12.5t-23 -7.5l-74 -79l-80 80q-7 7 -20 5
t-23.5 -12.5t-13 -23.5t5.5 -20l81 -82q-2 -3 -3 -6h-66v0v0q-15 0 -25.5 -11t-10.5 -26t10.5 -25.5t25.5 -10.5v0v0h73v-36h-73v0v0q-15 0 -25.5 -10.5t-10.5 -26t10.5 -26t25.5 -10.5v0v0h73v-36v0v-9q0 -19 13 -32.5t32 -13.5t32 13.5t13 32.5q0 4 -1 9h1v36h73
q15 0 25.5 11t10.5 25.5t-10.5 25.5t-25.5 11v0h-73v36h73v0zM684 801l-7 -10h-0.5h-0.5l-64 -81h-218l-64 81q-1 0 -1.5 0.5l-0.5 0.5l-7 9l2 2q-2 6 -2 7q0 19 18 25v2q90 18 164 18q34 1 75 -4t65 -9l23 -5l1 -2q18 -6 18 -25q0 -1 -2 -6z" />
    <glyph glyph-name="zhuanzhang" unicode="&#xe603;" 
d="M954 373q-20 0 -101.5 43t-89.5 51t-6.5 16.5t11.5 10.5l79 10q-32 84 -98.5 145t-156.5 82q-94 22 -187.5 -8t-160.5 -103t-89 -170q-4 -22 -19 -22q-16 1 -59 21q-1 1 -5 2.5t-5 2t-3 2t-2 3t-0.5 4t0 5.5t1.5 8q15 74 53.5 140t92.5 113t121 79.5t139.5 39t148.5 -8.5
q151 -36 251 -155.5t111 -273.5q2 -19 -5.5 -28t-20.5 -9zM631 318q16 0 26.5 -10.5t10.5 -26t-10.5 -26t-26.5 -10.5h-73v-46q0 -19 -13.5 -32.5t-32.5 -13.5t-32.5 13.5t-13.5 32.5v46h-73q-15 0 -26 10.5t-11 26t11 26t26 10.5h73v37h-73q-15 0 -26 11t-11 26t11 25.5
t26 10.5h73v3l-81 81q-11 11 -11 26.5t11 26.5t26 11t26 -11l75 -75l74 75q11 11 26.5 11t26 -11t10.5 -26t-10 -26l-81 -81v-4h74q15 0 25.5 -10.5t10.5 -25.5t-10.5 -26t-25.5 -11h-74v-37h73zM263 266.5q12 -7.5 10 -19.5t-15 -13l-74 -7q34 -79 99 -135.5t150 -76.5
q95 -22 187.5 7t159 100.5t87.5 168.5q2 6 3 12t2.5 9t6 7t12.5 0q31 -11 71 -22q9 -2 10.5 -7t-0.5 -13q0 -4 -2 -11q-28 -126 -113.5 -219t-205 -130.5t-243.5 -8.5q-151 36 -251 155t-112 273q-1 25 14 32.5t34 -3.5q15 -8 86.5 -49.5t83.5 -49z" />
    <glyph glyph-name="xinyongqiahuankuan" unicode="&#xe604;" 
d="M870 7h-713q-38 0 -64.5 26.5t-26.5 64.5v347h895v-347q0 -38 -27 -64.5t-64 -26.5zM632 244l-36 -128h219l36 128h-219zM66 664q0 38 26.5 64.5t64.5 26.5h713q37 0 64 -26.5t27 -64.5v-91h-895v91z" />
    <glyph glyph-name="dangmianfu" unicode="&#xe605;" 
d="M512 831q-91 0 -174 -35.5t-143 -95.5t-95.5 -142.5t-35.5 -173.5q0 -115 53 -213t145.5 -160t206.5 -73h5q21 0 36.5 14t17.5 35q2 22 -12.5 39.5t-36.5 19.5q-131 12 -219 109t-88 229q0 92 46 170t124 123.5t170 45.5t170.5 -45.5t124 -123.5t45.5 -170
q0 -82 -37 -154q-10 -20 -3.5 -41.5t26.5 -31.5t41.5 -3.5t31.5 26.5q49 96 49 204q0 91 -35.5 173.5t-95.5 142.5t-143 95.5t-174 35.5zM724.5 308q18.5 -3 33 8t16.5 29q3 19 3 39q0 110 -78.5 188.5t-189 78.5t-189 -78.5t-78.5 -188.5q0 -84 48.5 -153.5t126.5 -97.5
q8 -3 15 -3q14 0 25.5 7.5t16.5 21.5q6 17 -1.5 33.5t-24.5 22.5q-53 19 -85.5 65.5t-32.5 103.5q0 74 52.5 126.5t127 52.5t127 -52.5t52.5 -126.5q0 -13 -2 -26q-2 -18 8.5 -32.5t29 -17.5zM572 409q-16 23 -41 28t-43 -7q-18 -11 -25 -29.5t2 -44.5q8 -19 80 -177
t85 -183q18 -36 56.5 -46.5t68.5 7.5q30 17 39.5 51.5t-12.5 75.5q-161 253 -210 325z" />
    <glyph glyph-name="shoujichongzhi" unicode="&#xe607;" 
d="M773 832h-522q-39 0 -66 -27.5t-27 -65.5v-708q0 -39 27 -66.5t66 -27.5h522q38 0 65.5 27.5t27.5 66.5v708q0 38 -27.5 65.5t-65.5 27.5zM456 776h112q8 0 13 -5.5t5 -13t-5 -13t-13 -5.5h-112q-8 0 -13.5 5.5t-5.5 13t5.5 13t13.5 5.5zM512 -7q-23 0 -39.5 16.5
t-16.5 39.5t16.5 39.5t39.5 16.5t39.5 -16.5t16.5 -39.5t-16.5 -39.5t-39.5 -16.5zM754 180h-484v503h484v-503z" />
    <glyph glyph-name="youxichongzhi" unicode="&#xe60a;" 
d="M743 -71h-459q-103 0 -175.5 81.5t-72.5 197t72.5 197t175.5 81.5h459q102 0 174.5 -81.5t72.5 -197t-72.5 -197t-174.5 -81.5zM362 247h-52v61q0 15 -10.5 25.5t-25 10.5t-25 -10.5t-10.5 -25.5v-61h-60q-15 0 -26 -10t-11 -25t11 -25t26 -10h60v-52q0 -15 10.5 -26
t25 -11t25 11t10.5 26v52h52q15 0 25.5 10t10.5 25t-10.5 25t-25.5 10zM645.5 247q-14.5 0 -25 -10t-10.5 -25t10.5 -25t25 -10t25 10t10.5 25t-10.5 25t-25 10zM743 344q-15 0 -25 -10t-10 -24.5t10 -25t25 -10.5t25 10.5t10 25t-10 24.5t-25 10zM743 150q-15 0 -25 -10.5
t-10 -25t10 -25t25 -10.5t25 10.5t10 25t-10 25t-25 10.5zM840.5 247q-14.5 0 -25 -10t-10.5 -25t10.5 -25t25 -10t25 10t10.5 25t-10.5 25t-25 10zM551 539h-82v55q0 40 11.5 64.5t30 33t41 11.5t45 3t41 3t30 16.5t11.5 39.5v48h82v-55q0 -42 -10 -69t-25.5 -37t-35 -14.5
t-40 -2.5t-39.5 -0.5t-33.5 -9.5t-22 -28.5t-4.5 -57.5z" />
    <glyph glyph-name="shoukuan" unicode="&#xe60b;" 
d="M946 315l-356 -312q-35 -28 -79 -28t-79 27l-356 312q-13 15 -13 33t10.5 31.5t26.5 17.5q5 2 13 2h105v326q0 35 23 58t58 23h423q35 0 58.5 -23t23.5 -58v-326h103h0.5h0.5h0.5h0.5h1v0q20 -1 34 -15.5t14 -35.5q0 -18 -12 -32zM625 455q13 0 21 9.5t8 23.5t-8 23
t-21 9h-72l74 75q10 10 10 24t-10 24t-24 10t-24 -10l-69 -69l-68 69q-10 10 -24.5 10t-24.5 -10t-10 -24.5t10 -24.5l75 -74h-71q-14 0 -22 -9t-8 -23t8 -23.5t22 -9.5h73v-41h-73q-14 0 -22 -8t-8 -23q0 -14 8 -24t22 -10h73v-49q0 -17 11.5 -28.5t29 -11.5t29 11.5
t11.5 28.5v49h76q27 0 27 31q0 34 -31 34h-72v41h74z" />
    <glyph glyph-name="jipiao" unicode="&#xe60c;" 
d="M889 604l-0.5 -0.5t-1.5 -0.5h1l-165 -146l48 -183l16 -61l54 -208v0q4 -16 -7 -27q-8 -8 -19.5 -8t-19.5 8l-0.5 0.5l-0.5 0.5l-0.5 0.5l-1 1l-1 1l-0.5 0.5v0l-246 316l-138 -122v0l-33 -145v0q0 -11 -8 -18q-8 -8 -19 -8t-19 8q-5 5 -7 11v0l-49 121l-122 49h-2v0v1
q-5 2 -8 5q-8 8 -8 19t8 19q7 8 18 8v0l146 32l123 137l-316 243v1h-1q0 1 -1 1q-8 8 -8 19.5t8 19.5q10 9 24 7v0v0q1 0 4 -1l201 -50l61 -15l188 -46l146 162v0l1 1l1 1q34 34 85 40t84 -25q31 -33 25 -83.5t-40 -85.5zM812 750q-24 0 -43 -15.5t-24 -38.5l94 -79
q19 8 31 25t12 39q0 28 -20.5 48.5t-49.5 20.5z" />
    <glyph glyph-name="taobao" unicode="&#xe60e;" 
d="M129 535l-53 -83l99 -61q1 -1 3.5 -2.5t9 -6t11.5 -10t10.5 -14.5t7.5 -18t0.5 -21.5t-7.5 -25.5q-13 -27 -61 -78.5t-72.5 -75t-41.5 -38.5v0l130 -81q28 61 50.5 108t29 60.5t12.5 29t15 41.5q19 52 17.5 94.5t-29.5 70.5q-37 38 -55.5 54t-75.5 57zM463 640l30 59
l-119 34q-2 -7 -6 -18t-17 -42t-27.5 -58.5t-37.5 -60t-47 -52.5q5 -3 14 -8t27 -15.5t30 -17l12 -6.5q33 34 64 72q30 13 55 23q-51 -92 -94 -137l51 -44q34 33 72 73h43v-74h-167v-59h167v-141q-1 0 -3.5 0.5t-3.5 0.5q-46 2 -58 21q-6 10 -7 24.5t1.5 35.5t2.5 26h-115
l-4 -2q-1 -4 -2.5 -11t-2.5 -26.5t0.5 -37t9 -39t21 -37t38 -25.5t57.5 -9q180 -5 284 75l17 -63l95 40l-64 157l-77 -24l14 -54q-28 -21 -67 -34v123h163v59h-163v74h164v59h-291q36 43 42 63l-51 14q339 121 337 -63v-336q1 -3 1 -7t-1 -16t-4.5 -22.5t-12 -23t-21 -21.5
t-33.5 -14t-48 -3l-71 15l-17 -68q4 -1 11 -2.5t28 -5.5t42 -6t49.5 -1.5t53.5 5t51.5 16t46 29t34 47t18.5 67.5q23 223 -5 383l-1 6q-1 5 -3 12.5t-14.5 27.5t-31.5 36t-58 31t-90 19.5t-132 -5.5t-179 -38zM200.5 566q35.5 0 60.5 25t25 60t-25 60t-60.5 25t-60.5 -25
t-25 -60t25 -60t60.5 -25z" />
    <glyph glyph-name="jizhang" unicode="&#xe60f;" 
d="M742 788h-416q-51 0 -80.5 -6t-47.5 -25t-24 -47t-6 -77l4 -1h-3q-44 0 -44 -62.5t44 -62.5l-1 1v-88l1 6q-44 0 -44 -63t44 -63l-1 6v-96l1 9q-44 0 -44 -63q0 -16 1 -26.5t4 -22t11 -17t20 -5.5h7q0 -43 6 -66.5t24 -38.5t47 -19.5t81 -4.5h416q88 0 121 28t33 108v541
q0 51 -7 80.5t-26 46.5t-46 22.5t-75 5.5zM677 324q34 0 35 -35q2 -38 -39 -37l-93 2v-79q0 -27 -44 -27q-43 0 -43 27v79h-97q-35 0 -35 35v8v-2q2 29 35 29h97v52h-97q-15 0 -24 8.5t-9 33.5q0 17 10 27t27 10h73l-50 47l-23 23q-11 12 -11.5 28t9.5 28l0.5 1t1.5 2
q12 12 29 12t29 -12l3 -3l75 -76l78 79q12 12 29.5 12t29.5 -12t12 -29.5t-12 -29.5l-71 -70h73q18 0 27.5 -10t9.5 -27q0 -18 -9.5 -30t-25.5 -12h-97v-52h97z" />
    <glyph glyph-name="lvyoutehui" unicode="&#xe610;" 
d="M991 511q-1 15 -21 20q-8 2 -226.5 51.5t-446.5 101t-234 51.5q-14 2 -22 -6.5t-7 -21.5q0 -5 4 -13l291 -644q6 -8 16 -12.5t19 -0.5q12 5 118 82.5t111 79.5q3 0 73.5 -37.5t73.5 -37.5q9 0 15.5 6.5t6.5 15.5l21 197q203 155 205 157q3 3 3 11zM690 240l-562 425
q542 -277 556 -285q6 -3 8.5 -6.5t3 -5.5t0.5 -9l-6 -119v0z" />
    <glyph glyph-name="kuaidi" unicode="&#xe613;" 
d="M962 45h-73q-7 53 -47.5 89.5t-95.5 36.5t-96 -36.5t-47 -89.5h-56q-22 0 -38 15.5t-16 38.5v487q0 22 16 38t38 16h415q23 0 38.5 -16t15.5 -38v-487q0 -23 -15.5 -38.5t-38.5 -15.5zM403 45h-37q-7 53 -48 89.5t-95.5 36.5t-95.5 -36.5t-48 -89.5h-37q-15 0 -25.5 10.5
t-10.5 25.5v198q0 35 33 96t76.5 109t70.5 48h217q15 0 25.5 -10.5t10.5 -25.5v-415q0 -15 -10.5 -25.5t-25.5 -10.5zM331 442q-57 2 -125 0q-15 -1 -41 -29.5t-47.5 -68t-21.5 -65.5v-18h235v181zM222.5 117q37.5 0 64 -26.5t26.5 -64t-26.5 -64t-64 -26.5t-64 26.5
t-26.5 64t26.5 64t64 26.5zM750.5 117q39.5 0 67 -28t27.5 -67t-27.5 -67t-67 -28t-67 28t-27.5 67t27.5 67t67 28z" />
    <glyph glyph-name="qianbaopengyou" unicode="&#xe61b;" 
d="M333 337q-43 -4 -72 -27v0q-21 -18 -25 -41.5t7 -44.5t40 -35.5t69 -14.5q48 0 95 29t86 80q-63 31 -108.5 45t-91.5 9zM524.5 814.5q-120.5 3.5 -224.5 -53.5t-166 -157.5t-65 -221t53.5 -224t157 -165.5t221.5 -65q145 -4 265 80l157 -43l-42 160q72 107 75 235
q4 120 -53 223.5t-157.5 165.5t-221 65.5zM819 152q-164 70 -220 97q-47 -57 -108 -88.5t-125 -31.5q-60 0 -102.5 30t-48.5 70v0v-1q-2 6 -4 16.5t4.5 39.5t26.5 53q26 32 79 45q74 18 249 -40q4 8 12.5 23t14 24.5t11.5 23.5t10 27h-307v38h154v38h-173v38h173v76h95v-76
h173v-38h-173v-38h26t49.5 -0.5t56 0l22.5 0.5q-3 -19 -12 -42t-18 -37.5t-25 -39t-22 -33.5q24 -9 64 -25.5t51 -20.5q91 -33 112 -38q-17 -48 -45 -90z" />
    <glyph glyph-name="chenggong" unicode="&#xe625;" 
d="M513 821q-91 0 -174 -35.5t-143.5 -95.5t-96 -143t-35.5 -174.5t35.5 -174.5t96 -143t143.5 -95.5t174 -35.5t174 35.5t143 95.5t95.5 143t35.5 174.5t-35.5 174.5t-95.5 143t-143 95.5t-174 35.5zM783 498l-310 -317q-2 -3 -4 -5q-9 -9 -22 -9t-22 9l-154 157
q-9 9 -9 22t9 22.5t22 9.5t22 -10l131 -133l293 298q9 10 22 10t22 -9.5t9 -22.5t-9 -22z" />
    <glyph glyph-name="shibai" unicode="&#xe626;" 
d="M513 821q-91 0 -174 -35.5t-143.5 -95.5t-96 -143t-35.5 -174.5t35.5 -174.5t96 -143t143.5 -95.5t174 -35.5t174 35.5t143 95.5t95.5 143t35.5 174.5t-35.5 174.5t-95.5 143t-143 95.5t-174 35.5zM691 239q9 -9 9 -22t-9.5 -22.5t-22.5 -9.5t-22 9l-133 134l-133 -134
q-10 -9 -23 -9t-22 9.5t-9 22.5t9 22l133 133l-133 133q-9 10 -9 23t9 22t22 9t23 -9l133 -133l133 133q9 9 22 9t22.5 -9t9.5 -22t-9 -23l-134 -133z" />
    <glyph glyph-name="jingshi" unicode="&#xe627;" 
d="M513 820q-91 0 -174 -35.5t-143 -95.5t-95 -143t-35 -174t35 -173.5t95 -142.5t143 -95.5t174 -35.5t173.5 35.5t142.5 95.5t95.5 142.5t35.5 173.5t-35.5 174t-95.5 143t-142.5 95.5t-173.5 35.5zM475 583q0 14 10.5 25t25 11t25 -11t10.5 -25v-273q0 -15 -10.5 -25.5
t-25 -10.5t-25 10.5t-10.5 25.5v273zM511 125q-21 0 -36 15t-15 36.5t15 36.5t36 15t35.5 -15t14.5 -36.5t-14.5 -36.5t-35.5 -15z" />
    <glyph glyph-name="tishi" unicode="&#xe628;" 
d="M513 832q-91 0 -174 -35.5t-143 -95.5t-95 -143t-35 -174t35 -173.5t95 -142.5t143 -95.5t174 -35.5t173.5 35.5t142.5 95.5t95.5 142.5t35.5 173.5t-35.5 174t-95.5 143t-142.5 95.5t-173.5 35.5zM513.5 635q23.5 0 40 -16.5t16.5 -40t-16.5 -40t-39.5 -16.5t-40 16.5
t-17 40t16.5 40t40 16.5zM563 142h-40q-15 0 -28.5 11t-13.5 23v229h-14q-16 0 -27 11t-11 26.5t11 26.5t27 11h47q33 -3 33 -25v-238h16q15 0 26 -11t11 -26.5t-11 -26.5t-26 -11z" />
    <glyph glyph-name="bangzhu" unicode="&#xe629;" 
d="M513 833q-91 0 -174 -35.5t-143.5 -95.5t-96 -143t-35.5 -174.5t35.5 -174.5t96 -143t143.5 -95.5t174 -35.5t174 35.5t143 95.5t95.5 143t35.5 174.5t-35.5 174.5t-95.5 143t-143 95.5t-174 35.5zM511 161q-19 0 -32.5 14t-13.5 33.5t13.5 33.5t32.5 14t32.5 -14
t13.5 -33.5t-13.5 -33.5t-32.5 -14zM640.5 459.5q-9.5 -18.5 -23.5 -31.5q-12 -13 -47 -45q-9 -9 -15 -15.5t-8.5 -12.5t-4 -11.5t-4.5 -19.5q-6 -30 -33 -30q-15 0 -24.5 10t-9.5 29q0 24 7 42t19 31t32 32q18 16 26 24t13 18t5 22q0 23 -16.5 39t-42.5 16q-30 0 -44.5 -16
t-24.5 -47q-9 -33 -36 -33q-15 0 -26 11.5t-11 24.5q0 28 17 56t49.5 46t75.5 18q41 0 71.5 -15t47.5 -41.5t17 -57.5q0 -25 -9.5 -43.5z" />
    <glyph glyph-name="dengdai" unicode="&#xe62a;" 
d="M511.5 833q-91.5 0 -174.5 -35.5t-143 -95.5t-95.5 -143t-35.5 -174.5t35.5 -174.5t95.5 -143t143 -95.5t174.5 -35.5t174.5 35.5t143 95.5t95.5 143t35.5 174.5t-35.5 174.5t-95.5 143t-143 95.5t-174.5 35.5zM673 154q-11 -11 -27 -11t-26 11l-133 133q-5 5 -7 13
t-2 12.5v19.5q0 21 -5 265q0 16 11 27t26.5 11t26.5 -11t11 -27v-265l31 -31.5t62.5 -62.5l31.5 -31q11 -11 11 -26.5t-11 -26.5z" />
    <glyph glyph-name="xiangji" unicode="&#xe62b;" 
d="M512 517q-62 0 -105.5 -44t-43.5 -105.5t43.5 -105t105.5 -43.5t105.5 43.5t43.5 105t-43.5 105.5t-105.5 44zM874 591h-108q-10 0 -20.5 14.5t-14.5 28.5l-32 69q-5 12 -16 24.5t-22 12.5h-298q-10 0 -21.5 -12.5t-15.5 -24.5l-28 -72q-4 -13 -14.5 -26.5t-20.5 -13.5
h-108q-90 0 -90 -64v-405q0 -37 26.5 -63.5t63.5 -26.5h719q37 0 61.5 26.5t24.5 63.5v405q0 64 -86 64zM512.5 144q-92.5 0 -158.5 65.5t-66 158t66 158t158.5 65.5t158 -65.5t65.5 -158t-65.5 -158t-158 -65.5z" />
    <glyph glyph-name="shoujitongxunlu" unicode="&#xe62c;" 
d="M814 807h-599q-36 0 -61.5 -25.5t-25.5 -61.5v-114h17q15 0 25 -11t10 -25.5t-10 -25.5t-25 -11h-17v-109h17q15 0 25 -11t10 -25.5t-10 -25.5t-25 -11h-17v-110h17q15 0 25 -11t10 -25.5t-10 -25.5t-25 -11h-17v-113q0 -36 25.5 -61.5t61.5 -25.5h599q36 0 58 25t22 62
v665q0 37 -22 62t-58 25zM697 112q-35 -20 -109.5 33.5t-137.5 162.5q-42 74 -60.5 144t-13 113t27.5 56q3 2 14 8.5t15.5 9t15 7t16.5 4.5t15 -1t16 -6.5t14.5 -15t13.5 -24.5q12 -27 15 -45.5t-4 -30.5t-14 -18t-24 -15q-4 -3 -6 -4q-32 -19 36 -137.5t100 -99.5q3 1 7 3
q16 10 25 13.5t23 3.5t28 -12t32 -36q9 -13 13.5 -24.5t6 -20t-2 -17t-7 -13.5t-12.5 -11.5t-13.5 -9.5t-15.5 -9t-14 -8z" />
    <glyph glyph-name="shezhi" unicode="&#xe62d;" 
d="M511.5 564q-74.5 0 -127 -52.5t-52.5 -126.5t52.5 -126.5t127 -52.5t127 52.5t52.5 126.5t-52.5 126.5t-127 52.5zM511.5 250q-55.5 0 -95 39.5t-39.5 95t39.5 95t95 39.5t95 -39.5t39.5 -95t-39.5 -95t-95 -39.5zM960 295v179l-130 22q-6 19 -15 35l77 107l-127 127
l-107 -77q-16 9 -35 15l-22 130h-179l-22 -130q-14 -4 -35 -15l-107 76l-126 -126l76 -107q-9 -17 -15 -35l-130 -22v-179l130 -21q7 -21 16 -37l-77 -106l127 -127l107 76q20 -9 34 -13l22 -130h179l22 130q20 6 36 15l107 -77l127 127l-77 107q10 20 14 35zM787 286
q-4 -11 -11 -27q-12 -24 4 -46l54 -77l-73 -73l-76 55q-11 9 -26 9q-11 0 -21 -6q-13 -7 -29 -12q-26 -8 -30 -35l-16 -93h-103l-15 93q-5 28 -32 36q-11 3 -28 11q-9 4 -19 4q-14 0 -26 -8l-76 -55l-73 73l54 76q16 23 3 47q-7 12 -12 29q-8 26 -35 31l-93 15v103l93 16
q27 4 35 31q5 14 11 28q13 24 -3 46l-54 76l73 72l76 -53q11 -9 26 -9q10 0 20 5q17 9 28 12q27 8 32 36l15 92h103l16 -92q4 -28 31 -36q14 -4 26 -11q10 -6 22 -6q15 0 26 9l77 55l73 -73l-55 -76q-17 -24 -3 -49q7 -11 11 -26q8 -27 36 -31l92 -16v-103l-92 -15
q-28 -5 -36 -32z" />
    <glyph glyph-name="wode" unicode="&#xe62e;" 
d="M622 387q55 31 88 86.5t33 121.5q0 100 -70 170t-169.5 70t-169.5 -70t-70 -170q0 -67 34.5 -123.5t92.5 -87.5q-143 -39 -235 -156.5t-92 -266.5q0 -10 1 -27l45 3q-1 16 -1 24q0 102 49 190.5t134.5 143t187.5 62.5q12 -1 24 -1q14 0 29 1q105 -5 192.5 -59
t138.5 -143.5t51 -193.5q0 -8 -1 -24l45 -1q1 16 1 25q0 152 -95.5 270.5t-242.5 155.5zM503.5 404q-79.5 0 -135.5 56t-56 135.5t56 135.5t135.5 56t135.5 -56t56 -135.5t-56 -135.5t-135.5 -56z" />
    <glyph glyph-name="sousuo" unicode="&#xe62f;" 
d="M728 201q97 108 97 253q0 103 -51 190t-138 138t-190 51t-190 -51t-138 -138t-51 -190t51 -190t138 -138t190 -51q142 0 248 93l231 -230l33 33zM446 122q-90 0 -166.5 44.5t-121 121t-44.5 166.5t44.5 166.5t121 121t166.5 44.5t166.5 -44.5t121 -121t44.5 -166.5
t-44.5 -166.5t-121 -121t-166.5 -44.5z" />
    <glyph glyph-name="liebiao" unicode="&#xe630;" 
d="M65 386v-23h178v23v23h-178v-23zM65 748h178v-46h-178v46zM332 748h625v-46h-625v46zM65 70h178v-46h-178v46zM332 386v-23h625v23v23h-625v-23zM325 70h632v-46h-632v46z" />
    <glyph glyph-name="bianji" unicode="&#xe631;" 
d="M961 748l-437 -436l-35 35l437 437zM348 136l106 105l-35 35l-106 -105zM910 -14h-796v797h597v49h-647v-49v-846h25h846h25v597h-50v-548z" />
    <glyph glyph-name="shanchu" unicode="&#xe632;" 
d="M660 533h50v-397h-50v397zM536 136v397h-25h-24v-397h24h25zM313 533h49v-397h-49v397zM710 682v100q0 20 -14.5 34.5t-35.5 14.5h-298q-20 0 -34.5 -14.5t-14.5 -34.5v-100h-249v-49h100v-646q0 -21 14.5 -35.5t34.5 -14.5h596q21 0 35.5 14.5t14.5 35.5v646h100v49
h-249zM362 782h298v-100h-298v100zM809 -13h-596v646h596v-646z" />
    <glyph glyph-name="fenxiang" unicode="&#xe633;" 
d="M910 -13h-795v795h397v49h-422h-25v-894h50h820h25v447h-50v-397zM711 831v-49h164l-611 -611l35 -35l611 611v-164h50v224v24h-249z" />
    <glyph glyph-name="ditu" unicode="&#xe634;" 
d="M511.5 423q46.5 0 79 31t32.5 75t-32.5 75.5t-79 31.5t-79 -31.5t-32.5 -75.5t32.5 -75t79 -31zM511.5 593q27.5 0 47.5 -18.5t20 -45t-20 -45.5t-47.5 -19t-47 19t-19.5 45.5t19.5 45t47 18.5zM824 559q-2 -31 -4 -49l94 29v-466l-268 -75l-313 87v0v0v0v0l-224 -72v465
l93 22q-3 18 -3 40v2l-135 -32v-554l45 14l224 72l313 -86l313 86v554zM394 227q3 -3 5 -6q43 -51 84 -84l29 -22l28 23q41 31 84 83q3 3 5 7q128 165 148 281q3 22 3 36q1 110 -80 188q-78 75 -188 75t-188 -75q-82 -78 -81 -189q0 -14 3 -35q21 -117 148 -282zM511.5 766
q92.5 0 158.5 -65t65 -156q0 -11 -2 -29q-19 -106 -141 -265l-2 -2q-17 -21 -36.5 -40.5t-30.5 -29.5l-11 -9q-40 32 -79 79l-2 2q-122 157 -140 264l-3 29q-1 92 65 157t158.5 65z" />
    <glyph glyph-name="tianjia" unicode="&#xe635;" 
d="M538 409v423h-50v-423h-422v-49h422v-423h50v423h422v49h-422z" />
    <glyph glyph-name="bangzhuxiantiao" unicode="&#xe636;" 
d="M543 179.5q0 -12.5 -8.5 -21t-21 -8.5t-21.5 8.5t-9 21t9 21t21.5 8.5t21 -8.5t8.5 -21zM615 600q38 -33 38 -91q0 -34 -15 -62q-16 -29 -52 -59q-32 -26 -44 -50q-11 -26 -11 -72q0 -9 -6 -15q-6 -5 -14 -5q-9 0 -15 5q-6 6 -6 15q0 47 13 78q12 31 44 57q38 32 52 58
q13 24 13 53q-1 34 -21 55q-25 26 -72 26q-57 0 -82 -38q-17 -27 -17 -65q0 -9 -7 -15q-5 -6 -14 -6q-8 -1 -14 4q-6 6 -6 17q0 65 44 104q39 36 96 36h7q54 0 89 -30zM513 787q109 0 202 -53.5t146.5 -146.5t53.5 -202t-53.5 -202t-146.5 -147t-202 -54t-202 54t-147 147
t-54 202t54 202t147 146.5t202 53.5zM513 832q-91 0 -174 -35.5t-142.5 -95t-95 -142.5t-35.5 -174t35.5 -174t95 -142.5t142.5 -95t174 -35.5t174 35.5t142.5 95t95 142.5t35.5 174t-35.5 174t-95 142.5t-142.5 95t-174 35.5v0z" />
    <glyph glyph-name="gengduo" unicode="&#xe637;" 
d="M140 460q-31 0 -53 -21.5t-22 -52.5t22 -53t53 -22t52.5 22t21.5 53t-21.5 52.5t-52.5 21.5zM512 460q-31 0 -52.5 -21.5t-21.5 -52.5t21.5 -53t52.5 -22t53 22t22 53t-22 52.5t-53 21.5zM885 460q-31 0 -53 -21.5t-22 -52.5t22 -53t53 -22t52.5 22t21.5 53t-21.5 52.5
t-52.5 21.5z" />
    <glyph glyph-name="saoyisao" unicode="&#xe638;" 
d="M954 341h-884q-14 0 -24 10t-10 24.5t10 24.5t24 10h884q15 0 25 -10t10 -24.5t-10 -24.5t-25 -10zM908.5 543q-14.5 0 -24.5 10t-10 25v149h-149q-14 0 -24.5 10t-10.5 24.5t10.5 24.5t24.5 10h184q14 0 24 -10t10 -25v-183q0 -15 -10 -25t-24.5 -10zM300 727h-149v-149
q0 -15 -10.5 -25t-24.5 -10t-24 10t-10 25v183q0 15 10 25t24 10h184q14 0 24 -10t10 -24.5t-10 -24.5t-24 -10zM116 203q14 0 24.5 -10t10.5 -24v-150h149q14 0 24 -10t10 -24t-10 -24t-24 -10h-184q-14 0 -24 10t-10 24v184q0 14 10 24t24 10zM725 19h149v150q0 14 10 24
t24.5 10t24.5 -10t10 -24v-184q0 -14 -10 -24t-24 -10h-184q-14 0 -24.5 10t-10.5 24t10.5 24t24.5 10v0z" />
    <glyph glyph-name="fukuanma" unicode="&#xe639;" 
d="M229 535h24q5 0 8.5 3.5t3.5 8.5v263q0 5 -3.5 8.5t-8.5 3.5h-24q-5 0 -8.5 -3.5t-3.5 -8.5v-263q0 -5 3.5 -8.5t8.5 -3.5zM361 535h72q5 0 8.5 3.5t3.5 8.5v263q0 5 -3.5 8.5t-8.5 3.5h-72q-5 0 -8.5 -3.5t-3.5 -8.5v-263q0 -5 3.5 -8.5t8.5 -3.5zM768 535h24
q5 0 8.5 3.5t3.5 8.5v263q0 5 -3.5 8.5t-8.5 3.5h-24q-5 0 -8.5 -3.5t-3.5 -8.5v-263q0 -5 3.5 -8.5t8.5 -3.5zM672 391v-216q0 -15 10.5 -25.5t25.5 -10.5t25.5 10.5t10.5 25.5v216q0 15 -10.5 25.5t-25.5 10.5t-25.5 -10.5t-10.5 -25.5zM876 535h60q5 0 8.5 3.5t3.5 8.5
v263q0 5 -3.5 8.5t-8.5 3.5h-60q-5 0 -8.5 -3.5t-3.5 -8.5v-263q0 -5 3.5 -8.5t8.5 -3.5zM696 547v263q0 5 -3.5 8.5t-8.5 3.5h-72q-5 0 -8.5 -3.5t-3.5 -8.5v-263q0 -5 3.5 -8.5t8.5 -3.5h72q5 0 8.5 3.5t3.5 8.5zM519 427h-437q-8 0 -14.5 -6.5t-6.5 -15.5v-436
q0 -9 6.5 -15.5t14.5 -6.5h437q9 0 15 6.5t6 15.5v436q0 9 -6 15.5t-15 6.5zM469 19h-336v336h336v-336zM924 235q-15 0 -25.5 -10.5t-10.5 -25.5v-180h-180q-15 0 -25.5 -10.5t-10.5 -25t10.5 -25.5t25.5 -11h216q15 0 25.5 11t10.5 25v216q0 15 -10.5 25.5t-25.5 10.5z
M85 535h60q5 0 8.5 3.5t3.5 8.5v263q0 5 -3.5 8.5t-8.5 3.5h-60q-5 0 -8.5 -3.5t-3.5 -8.5v-263q0 -5 3.5 -8.5t8.5 -3.5zM924 427q-15 0 -25.5 -10.5t-10.5 -25.5v-48q0 -15 10.5 -25.5t25.5 -10.5t25.5 10.5t10.5 25.5v48q0 15 -10.5 25.5t-25.5 10.5zM253 115h96
q10 0 17 7t7 17v96q0 10 -7 17t-17 7h-96q-10 0 -17 -7t-7 -17v-96q0 -10 7 -17t17 -7zM522.5 535q7.5 0 12.5 3.5t5 8.5v263q0 5 -5 8.5t-12.5 3.5t-12.5 -3.5t-5 -8.5v-263q0 -5 5 -8.5t12.5 -3.5z" />
    <glyph glyph-name="chengshifuwu" unicode="&#xe63a;" 
d="M922 -2h-840h-9.5t-17.5 3t-17 9t0 19.5t25 32.5q28 16 65 29q-9 22 -9 46q0 44 28.5 75t69.5 31t69.5 -31t28.5 -75v-2.5v-1.5q11 1 19 2v550q0 27 18 45.5t45 18.5h377q27 0 44.5 -18.5t17.5 -45.5v-580q67 -19 111 -44q80 -53 12 -62q-9 -1 -37 -1v0zM545 604
q0 13 -9.5 22.5t-23.5 9.5h-64q-14 0 -23.5 -9.5t-9.5 -22.5v-89q0 -13 13 -23t28 -10h56q14 0 23.5 9.5t9.5 23.5v89zM545 369q0 14 -9.5 23.5t-23.5 9.5h-64q-14 0 -23.5 -9.5t-9.5 -23.5v-89q0 -13 13 -22.5t28 -9.5h56q14 0 23.5 9.5t9.5 22.5v89zM755 604
q0 13 -9.5 22.5t-23.5 9.5h-64q-14 0 -23.5 -9.5t-9.5 -22.5v-89q0 -13 13.5 -23t27.5 -10h56q14 0 23.5 9.5t9.5 23.5v89zM755 369q0 14 -9.5 23.5t-23.5 9.5h-64q-14 0 -23.5 -9.5t-9.5 -23.5v-89q0 -13 13.5 -22.5t27.5 -9.5h56q14 0 23.5 9.5t9.5 22.5v89z" />
    <glyph glyph-name="yule" unicode="&#xe643;" 
d="M904 196l-302 374q1 12 1 17q0 102 -72 173.5t-173 71.5t-173 -71.5t-72 -173t72 -173.5t173 -72q4 0 17 1l374 -302q8 -6 17 -6q12 0 20 8l21 21q0 -14 -4 -25q-11 -29 -49 -45q-9 -4 -21 -3.5t-22.5 2.5t-28 9t-28 12t-32.5 15q-29 14 -45 21t-48 18.5t-54 15
t-54.5 5.5t-59.5 -4.5t-59 -21t-63 -38.5q-9 -7 -10 -18t6 -20t18 -10.5t20 5.5q25 20 51.5 32t48.5 17t49 3.5t45.5 -5t46.5 -13.5t42.5 -17t42.5 -20q32 -14 48.5 -21.5t41.5 -14.5t45 -7q22 0 41 8q60 25 79 76q15 42 0 91l48 48q7 8 8 18.5t-6 18.5zM167 587
q0 79 56 135t135 56t134.5 -56t55.5 -135t-55.5 -134.5t-134.5 -55.5t-135 55.5t-56 134.5zM764 99l-321 259q50 18 88 56t56 88l259 -321l-39 -39q-5 -3 -8 -9zM600 380q-8 8 -19 8t-19 -8t-8 -19t8 -19l59 -60q8 -8 19 -8t19 8t8 19.5t-8 19.5z" />
    <glyph glyph-name="shejiao" unicode="&#xe647;" 
d="M749 399q44 32 70 80.5t26 101.5q0 93 -65.5 159t-158.5 66q-52 0 -97.5 -22.5t-77.5 -62.5q-26 7 -52 7q-84 0 -144 -60t-60 -145q0 -49 20.5 -91.5t56.5 -71.5q-63 -32 -101 -92t-38 -131v-149q0 -10 7.5 -17.5t17.5 -7.5h200h267h250q10 0 17.5 7.5t7.5 17.5v165
q0 81 -39.5 146.5t-106.5 99.5zM178 137q0 67 43.5 122t110.5 72q17 5 18.5 23t-15.5 25q-44 17 -69.5 56t-25.5 88q0 64 45 109.5t109 45.5q12 0 25 -2q-22 -45 -22 -95q0 -55 23.5 -102.5t64.5 -78.5q-71 -35 -114 -101.5t-43 -145.5v-140h-150v124zM845 13h-467v140
q0 76 49 137.5t124 80.5q18 4 19 22.5t-16 24.5q-49 20 -78 64t-29 99q0 73 51 124t123 51t123 -51t51 -124q0 -53 -32 -97.5t-83 -65.5q-17 -6 -16 -24.5t19 -22.5q73 -19 117.5 -79t44.5 -139v-140z" />
    <glyph glyph-name="tongxun" unicode="&#xe648;" 
d="M388 -65v0q-50 0 -91 24q-39 22 -71 71q-1 2 -6 10q-22 40 1 96.5t82 102.5q68 54 131 54q46 0 69 -31q7 -5 12 -5q4 0 8 4q0 1 1 1q33 44 61 93q26 45 44 92q3 12 0 16q-2 2 -3 2q-34 0 -57 28q-22 26 -31 68t-3 92q10 76 47 127t83 51h0.5h1.5q4 0 8 -1q57 2 102 -23
q68 -39 93 -127.5t2 -204.5t-89 -233q-78 -138 -186.5 -222.5t-208.5 -84.5zM434 242q-45 0 -100 -42q-42 -34 -62 -73.5t-10 -59.5q2 -3 5 -8q22 -38 55 -57q29 -16 66 -16q85 0 183 78.5t168 202.5q58 101 80 204.5t4.5 182t-71.5 109.5q-34 19 -77 16q-3 0 -6 1h-4
q-23 0 -47.5 -39t-32.5 -94q-4 -38 1.5 -71t20.5 -50q9 -11 19 -11q26 0 42 -20q18 -23 10 -60q0 -3 -1 -5q-20 -51 -48 -100q-30 -53 -67 -101l-4 -4q-18 -18 -43 -18q-26 0 -47 18q-3 3 -5 6q-7 11 -29 11zM355 412q-9 0 -16.5 6t-8.5 15q-7 36 14 66t57 37q10 2 18.5 -4
t10.5 -16.5t-4 -19t-16 -10.5q-15 -3 -24 -16t-6 -28q2 -10 -4 -19t-17 -11h-4zM269 414q-9 0 -16 6t-9 15q-12 63 24.5 116t100.5 64q10 2 18.5 -4t10.5 -16t-4 -19t-16 -11q-43 -7 -67.5 -43t-16.5 -78q2 -11 -4 -19.5t-17 -10.5h-4zM170 386q-9 0 -16 6t-8 15
q-20 109 42.5 199.5t171.5 110.5q10 2 18.5 -4t10.5 -16.5t-4 -19t-16 -10.5q-88 -16 -139 -89.5t-34 -161.5q1 -10 -5 -19t-16 -11h-5z" />
    <glyph glyph-name="shuma" unicode="&#xe64b;" 
d="M836 662h-251q-8 37 -38.5 62t-70.5 25h-193q-40 0 -70.5 -25t-38.5 -63q-47 -4 -79 -39t-32 -83v-397q0 -51 35.5 -86.5t86.5 -35.5h651q51 0 86.5 35.5t35.5 86.5v397q0 51 -35.5 87t-86.5 36zM283 697h193q18 0 32.5 -10t21.5 -25h-301q7 15 21.5 25t32.5 10zM906 142
q0 -29 -20.5 -49.5t-49.5 -20.5h-651q-29 0 -49.5 20.5t-20.5 49.5v397q0 29 20.5 49.5t49.5 20.5h651q29 0 49.5 -20.5t20.5 -49.5v-397zM440.5 571q-95.5 0 -163 -67.5t-67.5 -163t67.5 -163t163 -67.5t163 67.5t67.5 163t-67.5 163t-163 67.5zM440.5 162
q-73.5 0 -126 52.5t-52.5 126t52.5 126t126 52.5t125.5 -52.5t52 -126t-52 -126t-125.5 -52.5zM807 501zM769 501q0 16 11 27t27 11t27 -11t11 -27t-11 -27t-27 -11t-27 11t-11 27z" />
    <glyph glyph-name="tianjialeimu" unicode="&#xe662;" 
d="M511 832q-91 0 -173.5 -35.5t-142.5 -95.5t-95.5 -143t-35.5 -173.5t35.5 -173.5t95.5 -143t142.5 -95.5t173.5 -35.5t174 35.5t142.5 95.5t95 143t35.5 173.5t-35.5 173.5t-95 143t-142.5 95.5t-174 35.5zM511.5 -4q-105.5 0 -195 52t-141.5 141.5t-52 195t52 195
t141.5 141.5t195 52t194.5 -52t141 -141.5t52 -195t-52 -195t-141 -141.5t-194.5 -52zM721 414h-180v180q0 12 -9 20.5t-21 8.5t-20.5 -8.5t-8.5 -20.5v-180h-180q-12 0 -21 -8.5t-9 -21t9 -21t21 -8.5h180v-180q0 -12 8.5 -20.5t20.5 -8.5t21 8.5t9 20.5v180h180
q12 0 20.5 8.5t8.5 21t-8.5 21t-20.5 8.5z" />
    <glyph glyph-name="zhifubaoa" unicode="&#xe663;" 
d="M405 220q-42 0 -59.5 19t-17.5 41.5t18 42t58 19.5q32 0 66 -8.5t51 -16.5l18 -9q-3 -4 -7.5 -9.5t-19.5 -21t-30 -27t-36.5 -21t-40.5 -9.5zM906 513l-12 15q-47 53 -117.5 124.5t-122.5 118.5l-15 13q-52 47 -127.5 47t-127.5 -47l-15 -13q-53 -47 -123.5 -118.5
t-116.5 -124.5l-13 -15q-46 -53 -46 -129.5t46 -129.5l13 -15q46 -53 116.5 -124.5t123.5 -118.5l15 -13q52 -47 127.5 -47t127.5 47l15 13q41 37 72 67h-1q6 6 6 14q0 7 -5 12.5t-12.5 5.5t-13.5 -6q-44 -41 -70 -65l-15 -13q-42 -38 -103.5 -38t-103.5 38l-15 13
q-52 46 -121.5 116.5t-115.5 123.5l-12 14q-37 43 -37 105.5t37 105.5l12 14q46 53 115.5 123.5t121.5 116.5l15 13q42 38 103.5 38t103.5 -38l15 -13q52 -46 121.5 -116.5t114.5 -123.5l13 -14q37 -43 37 -106.5t-37 -104.5q-3 -2 -7 -7q-20 -22 -28.5 -29.5t-22.5 -13
t-28.5 -1.5t-38.5 16q-28 14 -67 35t-65 36l-25 14q34 63 48 125h-121v37h158v37h-158v74h-37v-74h-158v-37h158v-37h-121v-37h221q-1 -11 -8 -28.5t-14 -29.5l-6 -12q-74 33 -149 33q-55 0 -86.5 -27.5t-31.5 -71.5t30.5 -71.5t83.5 -27.5q28 0 56 11t48 26.5t36 31
t24 26.5l8 11q85 -47 164 -89q24 -13 42.5 -17t31.5 -3t29.5 14t27 24t33.5 38q47 53 47 129.5t-47 129.5z" />
    <glyph glyph-name="fuwuchuanga" unicode="&#xe664;" 
d="M838 791h-648q-20 0 -35.5 -14t-15.5 -42l-1 -726q0 -58 45 -58q20 0 43 11l235 105q6 3 15 6v41q-15 -3 -28 -9l-230 -108q-18 -9 -26 -6q-17 5 -17 29v701q0 12 7.5 22.5t18.5 10.5h622q14 0 20.5 -9t6.5 -22v-707q0 -11 -2 -16.5t-3.5 -6t-5.5 -1.5q-3 -1 -16 3
l-259 111q-7 3 -15 5v-40q3 -2 4 -2l255 -113q10 -4 25 -4q22 0 37.5 16t15.5 48v726q0 19 -15.5 34t-32.5 15zM302 464l139 23l61 130l64 -129l140 -19l-100 -102l25 -143l-125 66l-124 -69l22 143zM506 248l165 -76l-26 182l130 137l-185 31l-88 167l-85 -169l-177 -35
l125 -134l-21 -185z" />
    <glyph glyph-name="fuwuchuangb" unicode="&#xe667;" 
d="M631 225l-125 66l-123 -69l22 143l-101 99l138 22l61 130l63 -129l139 -19l-99 -101zM835 791h-651q-19 0 -32 -17t-13 -39v-728q0 -25 10.5 -38.5t26.5 -15t29.5 0.5t24.5 7l238 108q18 8 43.5 8.5t43.5 -7.5l253 -113q24 -10 51 2.5t27 54.5v721q0 21 -16 38.5
t-35 17.5z" />
    <glyph glyph-name="tansuoa" unicode="&#xe668;" 
d="M798 209q0 -72 -34 -112q-56 -48 -125 -72q25 46 -1 108q-15 37 -101 126q-11 11 -12.5 24.5t3.5 39.5l1 4q2 15 7 22.5t25.5 15.5t61.5 14q28 5 41 -3t28 -30q3 -5 5 -8q7 -10 14.5 -16.5t12.5 -9.5t15 -7q17 -8 29 -15q21 -11 25.5 -26t4.5 -50v-5zM512 766
q88 0 167 -38q-65 -40 -84 -66q-6 -8 -16 -24q-14 -20 -21.5 -27.5t-17.5 -8.5q-7 -1 -28 0q-15 1 -30 1t-29 -7t-19 -22q-8 -14 -4.5 -50.5t20.5 -56.5q6 -7 2 -23q-5 -16 -13 -22q-5 2 -19 19q-32 36 -55 43q-7 2 -26 6q-53 11 -59 24q-5 10 -5 39q0 39 -9 60
q-11 23 -37 32q54 57 127.5 89t155.5 32zM838 645q0 1 -1.5 2.5t-5.5 4t-8 2.5q-7 0 -12 -5t-5 -11l3 -10q89 -106 89 -243q0 -120 -70 -218q3 21 3 42v5q0 21 -0.5 31.5t-4.5 26t-14 27t-27 20.5q-13 8 -32 16q-12 5 -16.5 8.5t-11.5 13.5q-1 2 -5 7q-5 7 -7.5 11
t-8.5 11.5t-11 10.5t-13.5 8.5t-16.5 6t-20.5 2.5t-25.5 -2q-64 -10 -90 -27t-32 -53v-4q-6 -25 -3.5 -49t21.5 -43q81 -84 94 -116q20 -49 1 -81q-16 -27 -64 -33q-18 -2 -32 -2q-105 0 -194 51t-140.5 139t-51.5 191q0 128 78 230q24 0 31 -16q7 -14 7 -46q0 -36 8 -53
q6 -13 21 -22.5t27 -12.5t34 -8q17 -3 24 -5q13 -4 38 -33q10 -11 15 -16t13 -10t16 -5q26 0 41 34q19 40 -4 66q-10 13 -12 39.5t2 34.5q4 10 45 7q23 -1 34 0q15 2 27 10.5t18 16.5l18 24q9 14 15 22q18 24 89 67q18 11 21 13q1 1 2.5 3.5t1 6.5t-6.5 7q-100 60 -217 60
q-114 0 -211 -55.5t-153 -150.5t-56 -207.5t56 -208t153 -151t211 -55.5t210.5 55.5t152.5 151t56 207.5q0 146 -93 260z" />
    <glyph glyph-name="tansuob" unicode="&#xe66a;" 
d="M639 132q-16 37 -102 126q-11 11 -12 24.5t3 39.5l1 4q2 15 7 22.5t25.5 15.5t61.5 14q29 5 42 -3t27 -30q3 -4 5 -8q7 -10 14.5 -16.5t12.5 -9.5t16 -7q16 -8 29 -15q20 -11 24.5 -26t4.5 -50v-5q0 -72 -34 -112q-56 -48 -125 -72q25 46 0 108zM512 765q88 0 167 -38
q-65 -40 -84 -66q-6 -8 -16 -24q-14 -20 -21.5 -27.5t-17.5 -8.5q-7 -1 -27 0q-16 1 -30.5 1t-28.5 -7t-20 -22q-8 -14 -4.5 -50.5t20.5 -56.5q7 -7 2 -23q-4 -16 -13 -22q-4 2 -19 19q-32 36 -54 43q-8 2 -27 6q-52 11 -59 24q-4 10 -4 39q0 39 -10 60q-10 23 -36 31
q54 58 127 90t155 32zM92 384.5q0 -112.5 56.5 -208t153 -151t210.5 -55.5t210.5 55.5t153 151t56.5 208t-56.5 207.5t-153 150.5t-210.5 55.5t-210.5 -55.5t-153 -150.5t-56.5 -207.5z" />
    <glyph glyph-name="liuliang" unicode="&#xf02d9;" 
d="M880 351l-159 1q-6 -2 -11.5 1.5t-7.5 9.5l-24 76l-75 -351q-1 -19 -11 -19h-27q-6 -1 -11.5 2t-7.5 9l-93 458l-70 -331q-2 -6 -8 -10t-13 -3h-24q-7 -2 -13 1.5t-7 9.5l-47 146h-127q-7 0 -11.5 5t-4.5 11v32q0 7 4.5 11.5t11.5 4.5l157 1q18 1 20 -9l25 -76l68 358
q4 11 15 11l34 1q6 1 11.5 -2t7.5 -9l92 -454l68 326q4 16 17 13h27q6 2 12 -1.5t8 -9.5l46 -149h128q6 0 11 -4.5t5 -11.5v-32q0 -6 -5 -11t-11 -5z" />
    <glyph glyph-name="liuliangci" unicode="&#xe63b;" horiz-adv-x="1696" 
d="M1479 236l-268 1q-11 -3 -20.5 2.5t-12.5 16.5l-40 128l-127 -594q-3 -31 -20 -31l-45 -1q-11 -2 -20 3t-12 16l-157 775l-119 -560q-3 -11 -13.5 -18t-21.5 -4l-42 -1q-11 -3 -21 3t-13 17l-79 247h-215q-11 0 -19 8t-8 19v55q0 11 8 19t19 8l267 1q29 1 34 -16l41 -129
l116 608q6 18 25 18l57 1q11 3 20.5 -2.5t12.5 -16.5l155 -769l115 553q3 11 11 17.5t18 4.5h46q11 3 21 -2.5t12 -16.5l79 -251h216q11 0 19 -8t8 -19v-55q0 -11 -8 -19t-19 -8v0v0zM1479 236z" />
    <glyph glyph-name="all" unicode="&#xe696;" 
d="M461 410h25v25v218q0 101 -71 172t-172 71t-172 -71t-71 -172t71 -172t172 -71h218zM51 652.5q0 79.5 56.5 136t136 56.5t135.5 -56.5t56 -135.5v-218l26 26h-218q-79 0 -135.5 56t-56.5 135.5zM461 307l-26 26v-218q0 -79 -56 -135.5t-135.5 -56.5t-136 56.5t-56.5 136
t56.5 135.5t135.5 56h218zM0 115q0 -101 71 -172t172 -71t172 71t71 172v218v25h-25h-218q-101 0 -172 -71t-71 -172zM563 461l26 -26v218q0 79 56 135.5t135.5 56.5t136 -56.5t56.5 -136t-56.5 -135.5t-135.5 -56h-218zM1024 653q0 101 -71 172t-172 71t-172 -71t-71 -172
v-218v-25h25h218q101 0 172 71t71 172zM1024 115q0 101 -71 172t-172 71h-218h-25v-25v-218q0 -101 71 -172t172 -71q57 0 107 25q10 5 13.5 15t-1.5 19.5t-15 13t-19 -1.5q-40 -20 -85 -20q-80 0 -136 56.5t-56 135.5v218l-26 -26h218q79 0 135.5 -56t56.5 -136
q0 -28 -8 -54q-3 -10 2 -19.5t15 -12.5t19.5 2t12.5 15q10 34 10 69z" />
    <glyph glyph-name="back1" unicode="&#xe697;" 
d="M364 423q-20 -18 -20 -44t21 -44l309 -271q7 -6 15.5 -5.5t14.5 7.5t5.5 15.5t-7.5 14.5l-309 271q-14 12 -1 24l310 281q7 6 7.5 15t-5.5 15.5t-15 7t-15 -5.5z" />
    <glyph glyph-name="cart1" unicode="&#xe698;" 
d="M235 197q9 -27 35 -46t55 -19h537h18l6 19l123 429q9 32 -9 56.5t-51 24.5h-524q-11 0 -18 -7.5t-7 -18t7 -18t18 -7.5h524q17 0 12 -16l-123 -429l24 18h-537q-13 0 -26 9t-17 21l-208 619q-4 10 -13 15t-19 1.5t-14.5 -13t-1.5 -19.5zM400 -6q0 42 -29.5 71.5t-71 29.5
t-70.5 -29.5t-29 -71.5t29 -71.5t70.5 -29.5t71 29.5t29.5 71.5zM250 -6q0 21 14.5 35.5t35 14.5t35.5 -14.5t15 -35.5t-15 -35.5t-35.5 -14.5t-35 14.5t-14.5 35.5zM924 -6q0 42 -29 71.5t-70.5 29.5t-71 -29.5t-29.5 -71.5t29.5 -71.5t71 -29.5t70.5 29.5t29 71.5zM774 -6
q0 21 15 35.5t35.5 14.5t35 -14.5t14.5 -35.5t-14.5 -35.5t-35 -14.5t-35.5 14.5t-15 35.5z" />
    <glyph glyph-name="category" unicode="&#xe699;" 
d="M134 640q10 0 17 6t7 15t-7 15.5t-17 6.5h-97q-11 0 -18 -6.5t-7 -15.5t7 -15t18 -6h97zM134 363q10 0 17 6t7 15t-7 15t-17 6h-97q-11 0 -18 -6t-7 -15t7 -15t18 -6h97zM134 85q10 0 17 6.5t7 15.5t-7 15t-17 6h-97q-11 0 -18 -6t-7 -15t7 -15.5t18 -6.5h97zM987 640
q11 0 18 6t7 15t-7 15.5t-18 6.5h-707q-10 0 -17 -6.5t-7 -15.5t7 -15t17 -6h707zM994 363q10 0 17 6t7 15t-7 15t-17 6h-708q-10 0 -17 -6t-7 -15t7 -15t17 -6h708zM997 85q10 0 17 6.5t7 15.5t-7 15t-17 6h-707q-11 0 -18 -6t-7 -15t7 -15.5t18 -6.5h707z" />
    <glyph glyph-name="close1" unicode="&#xe69a;" 
d="M177 79q-6 -7 -6 -15.5t6.5 -14.5t15 -6t14.5 6l619 640q6 7 6 15.5t-6.5 14.5t-15.5 6t-15 -6zM795 49q6 -6 15 -6t15.5 6t6.5 14.5t-6 15.5l-619 640q-6 6 -14.5 6t-15 -6t-6.5 -14.5t6 -15.5z" />
    <glyph glyph-name="comments" unicode="&#xe69d;" 
d="M131 107q-32 0 -55 23.5t-23 56.5v640l-27 -27h867q32 0 55 -23.5t23 -56.5v-640l27 27h-473h-8l-6 -5l-225 -151q-9 -6 -11.5 -16.5t3.5 -20t17 -11.5t20 4l225 151l-15 -5h473h26v27v640q0 55 -38.5 94t-92.5 39h-867h-26v-26v-640q0 -56 38.5 -95t92.5 -39h137
q11 0 18.5 8t7.5 19t-7.5 19t-18.5 8h-137zM368 453.5q0 44.5 -31 75.5t-74.5 31t-74 -31t-30.5 -75.5t30.5 -75.5t74 -31t74.5 31t31 75.5zM210 453q0 22 15.5 38t37 16t37 -16t15.5 -38t-15.5 -37.5t-37 -15.5t-37 15.5t-15.5 37.5zM630 453.5q0 44.5 -30.5 75.5t-74 31
t-74.5 -31t-31 -75.5t31 -75.5t74.5 -31t74 31t30.5 75.5zM473 453q0 22 15 38t37 16t37.5 -16t15.5 -38t-15.5 -37.5t-37.5 -15.5t-37 15.5t-15 37.5zM893 453.5q0 44.5 -31 75.5t-74.5 31t-74 -31t-30.5 -75.5t30.5 -75.5t74 -31t74.5 31t31 75.5zM735 453q0 22 15.5 38
t37 16t37 -16t15.5 -38t-15.5 -37.5t-37 -15.5t-37 15.5t-15.5 37.5z" />
    <glyph glyph-name="cry" unicode="&#xe69e;" 
d="M1024 384q0 139 -68.5 257t-186.5 186.5t-257 68.5t-257 -68.5t-186.5 -186.5t-68.5 -257t68.5 -257t186.5 -186.5t257 -68.5q179 0 319 111q8 7 9 17t-5.5 18.5t-16.5 9.5t-18 -6q-126 -100 -288 -100q-94 0 -179.5 36.5t-147.5 98.5t-98.5 147.5t-36.5 179.5
t36.5 179.5t98.5 147.5t147.5 98.5t179.5 36.5t179.5 -36.5t147.5 -98.5t98.5 -147.5t36.5 -179.5q0 -132 -70 -244q-5 -9 -2.5 -19t11 -15.5t18.5 -3t16 11.5q77 123 77 270zM337 396q26 0 44.5 18.5t18.5 44.5t-18.5 44t-44.5 18t-44 -18t-18 -44t18 -44.5t44 -18.5z
M712 396q26 0 44 18.5t18 44.5t-18 44t-44 18t-44.5 -18t-18.5 -44t18.5 -44.5t44.5 -18.5zM353 191q69 56 171.5 56t171.5 -56q36 -28 51 -58q4 -9 1 -19t-12.5 -14.5t-19 -1.5t-14.5 13q-2 4 -8 11q-12 17 -29 30q-56 45 -140.5 45t-140.5 -45q-17 -13 -29 -30
q-6 -7 -8 -11q-5 -10 -14.5 -13t-19 1.5t-12.5 14.5t1 19q15 30 51 58z" />
    <glyph glyph-name="delete1" unicode="&#xe69f;" 
d="M973 687q11 0 18.5 7.5t7.5 18.5t-7.5 18.5t-18.5 7.5l-941 2q-10 0 -18 -8t-8 -19t8 -18.5t18 -7.5zM180 -96v-27h27l626 7h26v26v697q0 11 -7.5 18.5t-18.5 7.5t-18.5 -7.5t-7.5 -18.5v-697l26 27l-627 -7l27 -26v709q0 11 -7.5 19t-18.5 8t-19 -8t-8 -19v-709zM656 49
q0 -11 8 -18.5t19 -7.5t18.5 7.5t7.5 18.5v475q0 11 -7.5 18.5t-18.5 7.5t-19 -7.5t-8 -18.5v-475zM341 49q0 -11 8 -18.5t18.5 -7.5t18.5 7.5t8 18.5v475q0 11 -8 18.5t-18.5 7.5t-18.5 -7.5t-8 -18.5v-475zM499 49q0 -11 7.5 -18.5t18.5 -7.5t18.5 7.5t7.5 18.5v475
q0 11 -7.5 18.5t-18.5 7.5t-18.5 -7.5t-7.5 -18.5v-475zM392 779q0 11 7.5 19t18.5 8h205q11 0 18.5 -8t7.5 -19v-55h53v55q0 33 -23 56t-56 23h-205q-32 0 -55 -23t-23 -56v-48h52v48z" />
    <glyph glyph-name="edit1" unicode="&#xe6a0;" 
d="M34 665h-25v-25v-598q0 -52 36.5 -89t88.5 -37h794h25v25v484q0 10 -7.5 17.5t-17.5 7.5t-17.5 -7.5t-7.5 -17.5v-484l25 25h-794q-31 0 -53 22.5t-22 53.5v598l-25 -25h565q10 0 17.5 7t7.5 17.5t-7.5 18t-17.5 7.5h-565zM437 302l-5 -6v-9l-4 -149l-1 -36l34 12l144 51
l7 3l4 6l387 511l16 20l-21 16l-129 97l-19 15l-15 -20zM840 778l128 -98l-4 36l-387 -511l11 8l-143 -52l33 -24l4 149l-6 -15l398 511zM891 585l29 41l-112 82l-29 -41z" />
    <glyph glyph-name="email" unicode="&#xe6a1;" 
d="M973 -38l25 25h-870q-32 0 -54.5 23t-22.5 55v720l-25 -26h870q32 0 54.5 -22.5t22.5 -54.5v-65q0 -10 7.5 -17.5t18 -7.5t18 7.5t7.5 17.5v65q0 53 -37.5 91t-90.5 38h-870h-26v-26v-720q0 -54 37.5 -91.5t90.5 -37.5h870h26v26v476q0 11 -7.5 18.5t-18 7.5t-18 -7.5
t-7.5 -18.5v-476zM513 329q13 -10 27 -2l463 255q9 5 12 15.5t-2 20t-15.5 12.5t-19.5 -3l-463 -255l27 -1l-348 248q-9 7 -19.5 5t-16.5 -10.5t-4 -19t10 -16.5z" />
    <glyph glyph-name="favorite" unicode="&#xe6a2;" 
d="M472 812q10 23 17 22.5t17 -22.5l114 -265q4 -9 13.5 -13t19 0t13.5 13.5t0 19.5l-113 264q-23 53 -63 53t-64 -52l-119 -260q-5 -10 -1 -19.5t13.5 -13.5t19 -0.5t14.5 13.5zM946 488q25 -3 27.5 -9.5t-16.5 -22.5l-221 -188q-8 -7 -9 -17t6 -18t17.5 -8.5t18.5 5.5
l221 188q44 37 32 75t-70 44l-289 31q-11 1 -19 -5.5t-9 -17t5.5 -18.5t16.5 -9zM789 -62q5 -24 -0.5 -28t-27.5 8l-250 149q-9 5 -19 2.5t-15.5 -11t-3 -18.5t11.5 -16l250 -148q50 -30 83 -7t21 79l-60 279q-2 11 -10.5 16.5t-19 3.5t-16 -11t-3.5 -19zM233 -79
q-22 -13 -27.5 -8.5t-0.5 28.5l67 279q2 10 -3.5 18.5t-15.5 11t-19 -3t-12 -15.5l-66 -279q-13 -56 19 -79.5t83 5.5l252 142q9 5 12 14.5t-2.5 18.5t-15.5 12t-19 -2zM130 383q-48 42 -88 78q-8 7 -18 6.5t-17 -8.5t-6.5 -18t7.5 -17q40 -34 88 -78l128 -114q8 -6 18 -5.5
t17 8t6.5 17.5t-7.5 17v0l-1 1h-1v1l-1 1h-1l-1 1v1h-1l-1 1v0l-1 1v0l-1 1h-1v1l-1 1v0l-1 1h-1v1h-1v1h-1v0l-1 1v0l-1 1v0l-1 1v0l-1 1v0l-1 1v0l-1 1v0h-1v1h-1v1h-1v1h-1v0l-1 1v0l-1 1v0l-1 1v0l-1 1v0h-1v1h-1v1h-1v1h-1v1h-1v0l-1 1v0l-1 1v0l-1 1h-1v1h-1v1h-1v1
h-1v1h-1v1h-1l-1 1v0l-1 1v0l-1 1v0l-1 1h-1v1h-1v1h-1l-1 1v0l-1 1l-1 1v0l-1 1v0l-1 1h-1v1l-1 1h-1v1h-1l-1 1v1h-1l-1 1v0l-1 1l-1 1h-1v1l-1 1h-1v1h-1l-1 1l-1 1v0l-1 1l-1 1h-1v1l-1 1h-1l-1 1v1h-1l-1 1l-1 1l-1 1v0l-1 1l-1 1h-1l-1 1v1l-1 1h-1l-1 1l-1 1v1h-1
l-1 1l-1 1l-1 1h-1l-1 1v1l-1 1h-1l-1 1l-1 1l-1 1l-1 1h-1l-1 1v1l-1 1l-1 1h-1l-1 1l-1 1l-1 1l-1 1h-1l-1 1l-1 1l-1 1l-1 1v1l-1 1h-1l-1 1l-1 1l-1 1l-1 1l-1 1l-1 1h-1l-1 1l-1 1l-1 1l-2 2v0zM180 502q15 1 31 3q37 4 76 8q13 2 24 3q6 1 9 1q10 1 16.5 9.5t5.5 18.5
t-9.5 16.5t-18.5 4.5q-3 0 -9 -1q-11 -1 -23 -2q-40 -5 -76 -9q-16 -2 -31 -3q-31 -3 -56 -5q-10 -1 -17 -9t-6 -18t9 -16.5t18 -6.5q25 3 57 6z" />
    <glyph glyph-name="folder" unicode="&#xe6a5;" 
d="M1024 550q0 52 -36.5 88.5t-88.5 36.5h-375l18 -7l-127 124l-7 7h-10h-348h-25v-25v-678q0 -52 36.5 -88.5t87.5 -36.5h738q11 0 18 7t7 17.5t-7 18t-18 7.5h-738q-30 0 -52 22t-22 53v678l-25 -25h348l-17 7l126 -124l7 -7h10h375q31 0 53 -22t22 -53v-443
q0 -10 7 -17.5t17.5 -7.5t18 7.5t7.5 17.5v443zM1016 410v50h-988v-50h988z" />
    <glyph glyph-name="help" unicode="&#xe6a6;" 
d="M1024 384q0 139 -68.5 257t-186.5 186.5t-257 68.5t-257 -68.5t-186.5 -186.5t-68.5 -257t68.5 -257t186.5 -186.5t257 -68.5q179 0 319 111q8 7 9 17t-5.5 18.5t-16.5 9.5t-18 -6q-126 -100 -288 -100q-94 0 -179.5 36.5t-147.5 98.5t-98.5 147.5t-36.5 179.5
t36.5 179.5t98.5 147.5t147.5 98.5t179.5 36.5t179.5 -36.5t147.5 -98.5t98.5 -147.5t36.5 -179.5q0 -132 -70 -244q-5 -9 -2.5 -19t11 -15.5t18.5 -3t16 11.5q77 123 77 270zM533 205q14 0 24 -10t10 -25v-9q0 -14 -10 -24t-24 -10v0q-14 0 -24 10t-10 24v9q0 15 10 25
t24 10v0zM375 477q0 -2 1 -6t8.5 -10.5t19 -6.5t18.5 6t8 11l2 6q-2 58 24.5 85t80.5 24q73 -8 75 -81q-5 -33 -54 -85q-65 -65 -65 -117v-35q1 -3 2 -6.5t8 -9t17.5 -5.5t17.5 5t8 10l2 6v24q0 44 62 104q64 59 64 109q-5 136 -142 141q-157 3 -157 -169z" />
    <glyph glyph-name="information" unicode="&#xe6a7;" 
d="M1024 384q0 139 -68.5 257t-186.5 186.5t-257 68.5t-257 -68.5t-186.5 -186.5t-68.5 -257t68.5 -257t186.5 -186.5t257 -68.5q179 0 319 111q8 7 9 17t-5.5 18.5t-16.5 9.5t-18 -6q-126 -100 -288 -100q-94 0 -179.5 36.5t-147.5 98.5t-98.5 147.5t-36.5 179.5
t36.5 179.5t98.5 147.5t147.5 98.5t179.5 36.5t179.5 -36.5t147.5 -98.5t98.5 -147.5t36.5 -179.5q0 -132 -70 -244q-5 -9 -2.5 -19t11 -15.5t18.5 -3t16 11.5q77 123 77 270zM500 153q0 -10 7 -17.5t17.5 -7.5t17.5 7.5t7 17.5v318q0 11 -7 18t-17.5 7t-17.5 -7t-7 -18
v-318zM500 578q0 -11 7 -18t17.5 -7t17.5 7t7 18v43q0 11 -7 18t-17.5 7t-17.5 -7t-7 -18v-43z" />
    <glyph glyph-name="less" unicode="&#xe6a8;" 
d="M510 509q12 14 25 0l270 -310q6 -6 15 -7t15.5 5t7 15t-5.5 15l-270 310q-18 20 -44 20.5t-45 -20.5l-280 -309q-6 -7 -6 -16t7 -14.5t15.5 -5.5t14.5 7z" />
    <glyph glyph-name="moreunfold" unicode="&#xe6a9;" 
d="M478 252q19 -20 45 -20t44 21l270 309q6 7 5.5 15.5t-7 14.5t-15.5 5.5t-15 -7.5l-270 -309q-13 -14 -25 -1l-281 310q-6 7 -14.5 7.5t-15.5 -5.5t-7 -15t6 -15z" />
    <glyph glyph-name="more1" unicode="&#xe6aa;" 
d="M642 391q14 -12 0 -24l-309 -271q-7 -6 -7.5 -14.5t5 -15.5t14.5 -7.5t16 5.5l309 271q21 18 21 44t-20 44l-310 281q-7 6 -15.5 5.5t-14.5 -7t-5.5 -15.5t6.5 -15z" />
    <glyph glyph-name="pic1" unicode="&#xe6ab;" 
d="M475 320l-35 -4l228 -144l16 -11l15 12l313 231l12 9v14v260q0 60 -41.5 102.5t-100.5 42.5h-854h-28v-29v-722q0 -60 41.5 -102.5t100.5 -42.5h854h28v29v260q0 12 -8.5 20.5t-20 8.5t-20 -8.5t-8.5 -20.5v-260l29 29h-854q-35 0 -60 25.5t-25 61.5v722l-29 -29h854
q35 0 60 -25.5t25 -61.5v-260l12 24l-313 -231l32 1l-228 144l-19 12l-16 -16l-228 -231q-8 -9 -8 -21t8.5 -20t20 -8t20.5 8zM341 557.5q0 41.5 -29 71.5t-70 30t-70.5 -30t-29.5 -71.5t29.5 -71.5t70.5 -30t70 30t29 71.5zM199 557q0 18 12.5 31t30 13t30 -13t12.5 -31
t-12.5 -30.5t-30 -12.5t-30 12.5t-12.5 30.5z" />
    <glyph glyph-name="qrcode" unicode="&#xe6ac;" 
d="M390 826l-24 24v-342l24 24h-341l24 -24v342l-24 -24h341zM24 875v-25v-342v-25h25h341h24v25v342v25h-24h-341h-25zM390 239l-24 24v-342l24 24h-292q-10 0 -17.5 7.5t-7.5 17.5v293l-24 -24h341zM24 288v-25v-293q0 -30 21.5 -52t52.5 -22h292h24v25v342v25h-24h-341
h-25zM926 826q10 0 17.5 -7.5t7.5 -17.5v-293l24 24h-341l24 -24v342l-24 -24h292zM610 875v-25v-342v-25h24h341h25v25v293q0 31 -21.5 52.5t-52.5 21.5h-292h-24zM975 239l-24 24v-342l24 24h-341l24 -24v342l-24 -24h341zM610 288v-25v-342v-25h24h341h25v25v342v25h-25
h-341h-24zM488 508q0 -11 7 -18t17 -7t17 7t7 18v269q0 10 -7 17t-17 7t-17 -7t-7 -17v-269zM585 215q0 10 -7 17t-17 7t-17.5 -7t-7.5 -17v-294q0 -10 7.5 -17.5t17.5 -7.5t17 7.5t7 17.5v294zM488 117q0 10 -7.5 17t-17.5 7t-17 -7t-7 -17v-196q0 -10 7 -17.5t17 -7.5
t17.5 7.5t7.5 17.5v196zM1000 361q10 0 17 7t7 17.5t-7 17.5t-17 7h-976q-10 0 -17 -7t-7 -17.5t7 -17.5t17 -7h976z" />
    <glyph glyph-name="refresh1" unicode="&#xe6ad;" 
d="M512 896q-139 0 -257 -68.5t-186.5 -186.5t-68.5 -257t68.5 -257t186.5 -186.5t257 -68.5q123 0 231 54.5t180 151t93 216.5q3 17 5 34q1 11 -5.5 19t-16.5 9t-18.5 -5.5t-9.5 -16.5q-1 -16 -4 -31q-29 -165 -158 -273t-297 -108q-94 0 -179.5 36.5t-147.5 98.5
t-98.5 147.5t-36.5 179.5t36.5 179.5t98.5 147.5t147.5 98.5t179.5 36.5q139 0 254.5 -76t169.5 -203q4 -9 14 -13t19.5 0t13 14t-0.5 19q-60 140 -188 224.5t-282 84.5zM958 546l25 25h-259q-10 0 -17.5 -7.5t-7.5 -18t7.5 -17.5t17.5 -7h259q11 0 18 7t7 18v275
q0 10 -7 17.5t-17.5 7.5t-18 -7.5t-7.5 -17.5v-275z" />
    <glyph glyph-name="search" unicode="&#xe6ae;" 
d="M1002 -96q-2 5 -3 7l-4 6q-3 4 -10 11q-10 12 -31 34q-26 27 -96 98q-69 70 -95 97q-20 21 -30 32q-5 6 -7 8q1 -1 3 -5q1 -6 0 -9t-7 -16q62 60 95.5 139.5t33.5 167.5q0 114 -55.5 211.5t-151 154t-208 56.5t-208.5 -56.5t-151.5 -154t-55.5 -212t55.5 -212t151.5 -154
t208 -56.5q8 0 16 1q5 0 15 1q17 2 23 2q13 0 47 10l8 2q13 3 26 7q7 3 11 4q10 3 15 12.5t2 19.5t-12.5 15t-19.5 2q-4 -2 -11 -4q-13 -4 -24 -7l-8 -2q-28 -8 -34 -8q-9 0 -28 -2q-9 -1 -13 -1q-7 -1 -13 -1q-99 0 -183 50t-132.5 135.5t-48.5 186t48.5 186t132.5 135.5
t183 50t183 -50t133 -135.5t49 -185.5q0 -78 -29.5 -147.5t-84.5 -122.5q-7 -13 -8 -16.5t1 -9.5q2 -4 3 -7q1 -2 4 -5q3 -5 9 -11q11 -12 31 -34q26 -27 95.5 -97.5t95.5 -97.5q20 -21 30 -32q5 -6 7 -8q-1 2 -2 6q-2 6 -1 9t9 16q-8 -7 -9 -17.5t6 -18.5t17 -9t18 6
q8 13 9 16.5t0 9.5z" />
    <glyph glyph-name="selected" unicode="&#xe6b0;" 
d="M464 219q8 -7 18 -7t17 8l300 309q7 7 7 17.5t-7.5 17.5t-18 7t-17.5 -7l-300 -310l35 1l-181 167q-8 7 -18.5 6.5t-17.5 -8t-6.5 -18t8.5 -17.5z" />
    <glyph glyph-name="set" unicode="&#xe6b1;" 
d="M826 248l-7 -12l8 -12l78 -116l4 31l-139 -135l29 3l-128 76l-10 6l-11 -4q-13 -5 -25 -10l-13 -4l-3 -14l-28 -131l24 19h-197l24 -18l-34 137l-3 13l-12 4q-11 4 -22 10l-12 5l-11 -7l-120 -77l30 -3l-139 136l4 -31l78 125l7 11l-6 11l-10 26l-4 13l-14 2l-135 28
l20 -24v191l-19 -23l141 33l12 3l5 11q5 13 12 25l6 13l-8 12l-73 110l-3 -30l138 136l-30 -3l123 -75l10 -6l12 5l20 8l12 4l3 13l33 133l-23 -19h196l-24 20l29 -136l3 -13l13 -5q15 -6 30 -13l12 -6l11 7l114 72l-30 3l140 -135l-4 31l-76 -120l-7 -11l5 -12
q6 -12 10 -25l5 -12l13 -4l134 -31l-19 24v-192l20 24l-142 -29l-13 -2l-5 -12q-4 -11 -9 -22zM858 260l5 -24l141 29l20 4v20v192v19l-19 4l-134 32l-6 -24l23 8q-5 15 -11 29l-22 -10l20 -13l77 120l10 17l-14 13l-140 135l-14 13l-16 -10l-114 -71l13 -21l11 22
q-17 8 -34 15l-9 -23l24 5l-29 136l-4 19h-20h-196h-19l-5 -19l-33 -133l24 -5l-8 23q-12 -4 -23 -9l9 -23l13 21l-123 74l-16 10l-14 -13l-138 -137l-14 -14l11 -17l73 -110l21 13l-22 11q-7 -14 -13 -28l23 -9l-6 23l-141 -33l-19 -4v-20v-191v-20l20 -4l134 -27l5 24
l-23 -9q5 -14 12 -28l22 10l-21 12l-78 -124l-10 -17l14 -13l139 -136l14 -13l16 10l120 77l-13 20l-10 -22l24 -10l9 22l-23 -5l34 -138l4 -19h19h197h20l4 20l28 131l-24 5l7 -23q15 5 28 11l-9 22l-12 -21l127 -76l16 -9l14 13l139 135l14 14l-11 17l-78 116l-21 -13
l22 -11q6 12 11 24zM731 396q0 86 -60.5 146.5t-146.5 60.5t-146.5 -60.5t-60.5 -146.5t60.5 -146.5t146.5 -60.5q44 0 84 18q9 4 13 13.5t0 18.5t-13.5 12.5t-19.5 -0.5q-30 -13 -64 -13q-65 0 -111.5 46.5t-46.5 112t46.5 112t112 46.5t112 -46.5t46.5 -112.5
q0 -17 -4 -34q-2 -10 3.5 -18.5t15 -10.5t18 3.5t11.5 15.5q4 22 4 44z" />
    <glyph glyph-name="smile" unicode="&#xe6b2;" 
d="M1024 384q0 139 -68.5 257t-186.5 186.5t-257 68.5t-257 -68.5t-186.5 -186.5t-68.5 -257t68.5 -257t186.5 -186.5t257 -68.5q179 0 319 111q8 7 9 17t-5.5 18.5t-16.5 9.5t-18 -6q-126 -100 -288 -100q-94 0 -179.5 36.5t-147.5 98.5t-98.5 147.5t-36.5 179.5
t36.5 179.5t98.5 147.5t147.5 98.5t179.5 36.5t179.5 -36.5t147.5 -98.5t98.5 -147.5t36.5 -179.5q0 -132 -70 -244q-5 -9 -2.5 -19t11 -15.5t18.5 -3t16 11.5q77 123 77 270zM337 396q26 0 44.5 18.5t18.5 44.5t-18.5 44t-44.5 18t-44 -18t-18 -44t18 -44.5t44 -18.5z
M712 396q26 0 44 18.5t18 44.5t-18 44t-44 18t-44.5 -18t-18.5 -44t18.5 -44.5t44.5 -18.5zM353 127q69 -55 171.5 -55t171.5 55q36 29 51 59q4 9 1 18.5t-12.5 14.5t-19 1.5t-14.5 -12.5q-2 -4 -8 -12q-12 -16 -29 -30q-56 -44 -140.5 -44t-140.5 44q-17 14 -29 30
q-6 8 -8 12q-5 9 -14.5 12.5t-19 -1.5t-12.5 -14.5t1 -18.5q15 -30 51 -59z" />
    <glyph glyph-name="success" unicode="&#xe6b3;" 
d="M464 219q8 -7 18 -7t17 8l300 309q7 7 7 17.5t-7.5 17.5t-18 7t-17.5 -7l-300 -310l35 1l-181 167q-8 7 -18.5 6.5t-17.5 -8t-6.5 -18t8.5 -17.5zM1024 384q0 139 -68.5 257t-186.5 186.5t-257 68.5t-257 -68.5t-186.5 -186.5t-68.5 -257t68.5 -257t186.5 -186.5
t257 -68.5q179 0 319 111q8 7 9 17t-5.5 18.5t-16.5 9.5t-18 -6q-126 -100 -288 -100q-94 0 -179.5 36.5t-147.5 98.5t-98.5 147.5t-36.5 179.5t36.5 179.5t98.5 147.5t147.5 98.5t179.5 36.5t179.5 -36.5t147.5 -98.5t98.5 -147.5t36.5 -179.5q0 -132 -70 -244
q-5 -9 -2.5 -19t11 -15.5t18.5 -3t16 11.5q77 123 77 270z" />
    <glyph glyph-name="viewgallery" unicode="&#xe6b5;" 
d="M147 846h202q31 0 53 -22t22 -53v-224q0 -32 -22 -54t-53 -22h-202q-31 0 -53 22t-22 54v224q0 31 22 53t53 22zM21 547q0 -52 37 -89t89 -37h202q52 0 88.5 37t36.5 89v224q0 52 -36.5 88.5t-88.5 36.5h-202q-52 0 -89 -36.5t-37 -88.5v-224zM675 846h202q31 0 53 -22
t22 -53v-224q0 -32 -22 -54t-53 -22h-202q-31 0 -53 22t-22 54v224q0 31 22 53t53 22zM550 547q0 -52 36.5 -89t88.5 -37h202q52 0 89 37t37 89v224q0 52 -37 88.5t-89 36.5h-202q-52 0 -88.5 -36.5t-36.5 -88.5v-224zM147 297h202q31 0 53 -22t22 -54v-224q0 -31 -22 -53
t-53 -22h-202q-31 0 -53 22t-22 53v224q0 32 22 54t53 22zM21 -3q0 -52 37 -88.5t89 -36.5h202q52 0 88.5 36.5t36.5 88.5v224q0 52 -36.5 89t-88.5 37h-202q-52 0 -89 -37t-37 -89v-224zM875 -78h-7h-23h-69h-101q-31 0 -53 22t-22 53v224q0 32 22 54t53 22h202
q31 0 53 -22t22 -53v-195v-30q0 -10 7.5 -17.5t18 -7.5t18 7.5t7.5 17.5v30v195q0 51 -37 88t-89 37h-202q-52 0 -88.5 -37t-36.5 -89v-224q0 -52 36.5 -88.5t88.5 -36.5h101h69h23h7h1q11 0 18.5 7.5t7.5 17.5t-7.5 17.5t-17.5 7.5h-2z" />
    <glyph glyph-name="viewlist" unicode="&#xe6b6;" 
d="M147 846h200q31 0 53 -22t22 -53v-224q0 -32 -22 -54t-53 -22h-200q-32 0 -54 22t-22 54v224q0 31 22 53t54 22zM21 547q0 -52 37 -89t89 -37h200q52 0 89 37t37 89v224q0 52 -37 88.5t-89 36.5h-200q-52 0 -89 -36.5t-37 -88.5v-224zM147 297h200q31 0 53 -22t22 -54
v-224q0 -31 -22 -53t-53 -22h-200q-32 0 -54 22t-22 53v224q0 32 22 54t54 22zM21 -3q0 -52 37 -88.5t89 -36.5h200q52 0 89 36.5t37 88.5v224q0 52 -37 89t-89 37h-200q-52 0 -89 -37t-37 -89v-224zM999 746q10 0 17.5 7.5t7.5 17.5t-7.5 17.5t-17.5 7.5h-426
q-11 0 -18 -7.5t-7 -17.5t7 -17.5t18 -7.5h426zM999 621q10 0 17.5 7.5t7.5 18t-7.5 17.5t-17.5 7h-426q-11 0 -18 -7t-7 -17.5t7 -18t18 -7.5h426zM999 496q10 0 17.5 7.5t7.5 18t-7.5 17.5t-17.5 7h-426q-11 0 -18 -7t-7 -17.5t7 -18t18 -7.5h426zM999 222q10 0 17.5 7
t7.5 17.5t-7.5 18t-17.5 7.5h-426q-11 0 -18 -7.5t-7 -18t7 -17.5t18 -7h426zM999 97q10 0 17.5 7t7.5 17.5t-7.5 18t-17.5 7.5h-426q-11 0 -18 -7.5t-7 -18t7 -17.5t18 -7h426zM999 -28q10 0 17.5 7.5t7.5 17.5t-7.5 17.5t-17.5 7.5h-426q-11 0 -18 -7.5t-7 -17.5t7 -17.5
t18 -7.5h426z" />
    <glyph glyph-name="warning" unicode="&#xe6b7;" 
d="M598 738q-40 64 -100 64t-100 -64l-373 -602q-40 -65 -12.5 -116.5t103.5 -52.5h775q78 -2 105 40.5t-13 107.5q-1 4 -11 18l-8 13q-6 9 -16 11.5t-18.5 -3t-11 -15.5t2.5 -19v0l1 -1l1 -2v-1h1v-1l1 -1v-1h1v-1l1 -1v-1l1 -1v0l1 -2v0v0l2 -2l1 -2l1 -2l1 -2l1 -2l1 -1
l1 -1l1 -1v-2h1v-1l1 -1l1 -2v0q23 -38 11.5 -55t-60.5 -16h-775q-47 1 -61 26.5t11 65.5l373 602q26 41 58.5 41t57.5 -41l301 -472q6 -9 16 -11t18.5 3.5t11 16t-3.5 18.5zM475 276q0 -10 7 -17.5t17.5 -7.5t17.5 7.5t7 17.5v320q0 11 -7 18t-17.5 7t-17.5 -7t-7 -18v-320
zM474 119q1 -10 8 -17.5t17.5 -7.5t17.5 7.5t7 18.5v64q0 10 -7.5 17.5t-18 7t-17.5 -7.5t-7 -18v-64z" />
    <glyph glyph-name="wrong" unicode="&#xe6b9;" 
d="M1024 384q0 139 -68.5 257t-186.5 186.5t-257 68.5t-257 -68.5t-186.5 -186.5t-68.5 -257t68.5 -257t186.5 -186.5t257 -68.5q179 0 319 111q8 7 9 17t-5.5 18.5t-16.5 9.5t-18 -6q-126 -100 -288 -100q-94 0 -179.5 36.5t-147.5 98.5t-98.5 147.5t-36.5 179.5
t36.5 179.5t98.5 147.5t147.5 98.5t179.5 36.5t179.5 -36.5t147.5 -98.5t98.5 -147.5t36.5 -179.5q0 -132 -70 -244q-5 -9 -2.5 -19t11 -15.5t18.5 -3t16 11.5q77 123 77 270zM332 232q-7 -7 -7 -17.5t7.5 -17.5t17.5 -7t17 7l350 357q8 7 8 17.5t-7.5 17.5t-18 7t-17.5 -7z
M682 197q7 -7 17.5 -7t18 7t7.5 17.5t-8 17.5l-350 357q-7 7 -17 7t-17.5 -7t-7.5 -17.5t7 -17.5z" />
    <glyph glyph-name="account" unicode="&#xe6ba;" 
d="M794 579q0 122 -86.5 209t-208.5 87t-208 -87t-86 -209t86 -209t208 -87t208.5 87t86.5 209zM256 579q0 101 71 172.5t172 71.5t172 -71.5t71 -172.5t-71 -172.5t-172 -71.5t-172 71.5t-71 172.5zM0 -102v-26h26h460h512h26v26q0 85 -41.5 165.5t-111 140t-164 95.5
t-195.5 36q-25 0 -49 -2q-7 -1 6 -9q17 -11 17 -19q8 1 13 -10.5t13 -11.5q91 0 176.5 -32t147.5 -85t99.5 -123.5t37.5 -144.5l25 25h-512h-460l25 -25q0 102 60 190t164 141q10 4 13 14.5t-1.5 20t-14.5 12.5t-20 -1q-116 -59 -184 -159.5t-68 -217.5z" />
    <glyph glyph-name="add" unicode="&#xe6bb;" 
d="M853 363q9 0 15.5 6t6.5 15t-6.5 15t-15.5 6h-682q-9 0 -15.5 -6t-6.5 -15t6.5 -15t15.5 -6h682zM491 43q0 -9 6 -15.5t15 -6.5t15 6.5t6 15.5v682q0 9 -6 15.5t-15 6.5t-15 -6.5t-6 -15.5v-682z" />
    <glyph glyph-name="atm" unicode="&#xe6bd;" 
d="M786.5 248q15.5 0 26.5 29.5t11 71t-11 71t-26.5 29.5t-26.5 -29.5t-11 -71t11 -71t26.5 -29.5zM462.5 198q15.5 0 26.5 25.5t11 62t-11 62t-26.5 25.5t-26.5 -25.5t-11 -62t11 -62t26.5 -25.5zM0 323q0 -92 40.5 -175.5t109.5 -144t163.5 -96t198.5 -35.5t198.5 35.5
t163.5 96t109.5 144t40.5 175.5t-40.5 176t-109.5 144t-163.5 95.5t-198.5 35.5h5q-3 2 -11 10q-26 23 -47 37q-85 54 -222 54q-10 0 -17.5 -7.5t-7.5 -18t7.5 -17.5t17.5 -7q123 0 195 -47q3 -2 21 -16.5t34.5 -26t24.5 -11.5q126 0 232.5 -53.5t168 -146t61.5 -201
t-61.5 -201t-168 -146.5t-232.5 -54t-232.5 54t-168 146.5t-61.5 200.5q0 109 63 202.5t172 146.5q9 5 12.5 15t-1 19t-14.5 12.5t-19 -1.5q-121 -59 -192 -164.5t-71 -229.5z" />
    <glyph glyph-name="clock" unicode="&#xe6be;" 
d="M1024 384q0 139 -68.5 257t-186.5 186.5t-257 68.5t-257 -68.5t-186.5 -186.5t-68.5 -257t68.5 -257t186.5 -186.5t257 -68.5q172 0 309 104q8 6 9.5 16t-4.5 18t-16 9.5t-18 -4.5q-124 -94 -280 -94q-94 0 -180 36.5t-148 98.5t-98.5 148t-36.5 180t36.5 180t98.5 148
t148 98.5t180 36.5t180 -36.5t148 -98.5t98.5 -148t36.5 -180q0 -144 -81 -262q-5 -8 -3.5 -18t10 -15.5t18.5 -4t16 10.5q89 130 89 289zM488 286q0 -10 7 -17t17 -7t17 7t7 17v366q0 10 -7 17.5t-17 7.5t-17 -7.5t-7 -17.5v-366zM482 424q-7 8 -17 8.5t-17.5 -6
t-8.5 -16.5t6 -18l171 -195q6 -7 16 -8t18 6t8.5 17t-6.5 17z" />
    <glyph glyph-name="remind" unicode="&#xe6c1;" 
d="M0 461v-175q0 -26 18.5 -45t45.5 -19h165l-15 6l255 -256q23 -22 45 -13t22 41v747q0 32 -22 41t-45 -14l-255 -256l15 7h-165q-27 0 -45.5 -19t-18.5 -45zM229 482h9l6 6l255 256q3 3 5 4q-3 -1 -7 0.5t-5 4.5q1 -2 1 -6v-747q0 -4 -1 -6q1 3 5 4.5t7 0.5q-2 0 -5 3
l-255 256l-6 7h-9h-165q-9 0 -15 6t-6 15v175q0 9 6 15t15 6h165zM821 360.5q0 89.5 -59.5 153t-143.5 63.5q-9 0 -15 -6.5t-6 -15.5t6 -15t15 -6q66 0 113 -51t47 -123t-47 -122.5t-113 -50.5q-9 0 -15 -6.5t-6 -15.5t6 -15t15 -6q84 0 143.5 63.5t59.5 153zM1003 369
q0 117 -67.5 215t-179.5 147q-8 3 -16 0t-11.5 -11t-0.5 -16.5t11 -11.5q101 -44 161 -131.5t60 -191.5q0 -100 -54.5 -184t-147.5 -131q-8 -4 -10.5 -12t1.5 -16t12 -11t16 1q104 52 165 146.5t61 206.5z" />
    <glyph glyph-name="markfill" unicode="&#xe730;" 
d="M512 832q-185 0 -316.5 -112.5t-131.5 -271.5q0 -137 100.5 -242.5t256.5 -133.5l65 -91q10 -13 26 -13t26 13l65 91q156 28 256.5 133.5t100.5 242.5q0 159 -131.5 271.5t-316.5 112.5zM288.5 384q-26.5 0 -45.5 19t-19 45t19 45t45.5 19t45 -19t18.5 -45t-18.5 -45
t-45 -19zM512.5 384q-26.5 0 -45.5 19t-19 45t19 45t45.5 19t45 -19t18.5 -45t-18.5 -45t-45 -19zM736.5 384q-26.5 0 -45.5 19t-19 45t19 45t45.5 19t45 -19t18.5 -45t-18.5 -45t-45 -19z" />
    <glyph glyph-name="mark" unicode="&#xe731;" 
d="M512 -32q-16 0 -26 13l-65 91q-156 28 -256.5 133.5t-100.5 242.5q0 159 131.5 271.5t316.5 112.5t316.5 -112.5t131.5 -271.5q0 -137 -100.5 -242.5t-256.5 -133.5l-65 -91q-10 -13 -26 -13zM512 768q-159 0 -271.5 -94t-112.5 -226q0 -116 89.5 -205t226.5 -110
q13 -2 21 -13l47 -65l47 65q7 11 21 13q137 21 226.5 110t89.5 205q0 132 -112.5 226t-271.5 94zM288.5 384q-26.5 0 -45.5 19t-19 45t19 45t45.5 19t45 -19t18.5 -45t-18.5 -45t-45 -19zM288 448v0v-32v32zM736.5 384q-26.5 0 -45.5 19t-19 45t19 45t45.5 19t45 -19
t18.5 -45t-18.5 -45t-45 -19zM736 448v0v-32v32zM512.5 384q-26.5 0 -45.5 19t-19 45t19 45t45.5 19t45 -19t18.5 -45t-18.5 -45t-45 -19zM512 448v0v-32v32z" />
    <glyph glyph-name="calendar" unicode="&#xe6c2;" 
d="M128 -33q-32 0 -54.5 22.5t-22.5 55.5v700l-25 -26h870q32 0 54.5 -23t22.5 -55v-584q0 -10 7.5 -18t18 -8t18 8t7.5 18v584q0 54 -37.5 92t-90.5 38h-870q-11 0 -18.5 -7.5t-7.5 -18.5v-700q0 -54 37.5 -92t90.5 -38h755q11 0 18.5 7.5t7.5 18t-7.5 18.5t-18.5 8h-755z
M282 641q0 -11 7.5 -18.5t18 -7.5t18 7.5t7.5 18.5v195q0 10 -7.5 18t-18 8t-18 -8t-7.5 -18v-195zM717 654q0 -11 7.5 -18.5t18 -7.5t18 7.5t7.5 18.5v195q0 10 -7.5 18t-18 8t-18 -8t-7.5 -18v-195zM333 485q10 0 17.5 8t7.5 18.5t-7.5 18t-17.5 7.5h-141
q-11 0 -18.5 -7.5t-7.5 -18t7.5 -18.5t18.5 -8h141zM614 485q11 0 18.5 8t7.5 18.5t-7.5 18t-18.5 7.5h-140q-11 0 -18.5 -7.5t-7.5 -18t7.5 -18.5t18.5 -8h140zM870 485q11 0 18.5 8t7.5 18.5t-7.5 18t-18.5 7.5h-140q-11 0 -18.5 -7.5t-7.5 -18t7.5 -18.5t18.5 -8h140z
M333 330q10 0 17.5 7.5t7.5 18t-7.5 18.5t-17.5 8h-141q-11 0 -18.5 -8t-7.5 -18.5t7.5 -18t18.5 -7.5h141zM614 330q11 0 18.5 7.5t7.5 18t-7.5 18.5t-18.5 8h-140q-11 0 -18.5 -8t-7.5 -18.5t7.5 -18t18.5 -7.5h140zM870 330q11 0 18.5 7.5t7.5 18t-7.5 18.5t-18.5 8h-140
q-11 0 -18.5 -8t-7.5 -18.5t7.5 -18t18.5 -7.5h140zM333 174q10 0 17.5 7.5t7.5 18.5t-7.5 18.5t-17.5 7.5h-141q-11 0 -18.5 -7.5t-7.5 -18.5t7.5 -18.5t18.5 -7.5h141zM614 174q11 0 18.5 7.5t7.5 18.5t-7.5 18.5t-18.5 7.5h-140q-11 0 -18.5 -7.5t-7.5 -18.5t7.5 -18.5
t18.5 -7.5h140zM870 174q11 0 18.5 7.5t7.5 18.5t-7.5 18.5t-18.5 7.5h-140q-11 0 -18.5 -7.5t-7.5 -18.5t7.5 -18.5t18.5 -7.5h140z" />
    <glyph glyph-name="fuwuchuang" unicode="&#xe611;" 
d="M819 -17q0 -17 -11.5 -29t-28.5 -12q-8 0 -15 3v0l-252 113l-254 -114h-1q-6 -2 -12 -2q-17 0 -28.5 12t-11.5 29q0 4 1 8l-1 1v616q0 50 48 50h518q20 0 34 -13t14 -37v-616l-1 -1q1 -4 1 -8zM571 413l-60 104l-58 -105l-122 -22l87 -85l-16 -118l111 52l112 -51
l-18 118l86 86z" />
    <glyph glyph-name="attentionfill" unicode="&#xe73c;" 
d="M992 384q0 9 -1 11q-1 6 -2 11q-1 1 -1 2q-1 3 -2 4q-66 145 -197 234.5t-277 89.5t-277 -89t-197 -234q-1 -3 -2 -5q0 -2 -1 -2q0 -2 -1 -8l-2 -11v-6q1 -7 1 -8q0 -3 1 -7v0l2 -6t2 -4q66 -145 197 -234.5t277 -89.5t277 89t196 233q2 3 3 7q0 1 1 1q0 2 0.5 4t1 3.5
t-0.5 1.5v0q2 8 2 13zM512 224q-66 0 -113 47t-47 113t47 113t113 47t113 -47t47 -113t-47 -113t-113 -47z" />
    <glyph glyph-name="attention" unicode="&#xe73e;" 
d="M992 384q0 9 -1 11q-1 6 -2 11q-1 1 -1 2q-1 3 -2 4q-66 145 -197 234.5t-277 89.5t-277 -89t-197 -234q-1 -3 -2 -5q0 -2 -1 -2q0 -2 -1 -8l-2 -11v-6q1 -7 1 -8q0 -3 1 -7v0l2 -6t2 -4q66 -145 197 -234.5t277 -89.5t277 89t196 233q2 3 3 7q0 1 1 1q0 2 0.5 4t1 3.5
t-0.5 1.5v0q2 8 2 13zM927 382v-1v-1q-59 -128 -173.5 -206t-241.5 -78t-241 78t-174 206v2l-0.5 0.5l-0.5 0.5v1v1q0 1 1 2v1q59 128 173.5 206t241.5 78t241.5 -78t173.5 -206v-1v0q1 -3 1 -4zM512 544q-66 0 -113 -47t-47 -113t47 -113t113 -47t113 47t47 113t-47 113
t-113 47zM512 288q-40 0 -68 28t-28 68t28 68t68 28t68 -28t28 -68t-28 -68t-68 -28z" />
    <glyph glyph-name="community" unicode="&#xe741;" 
d="M637 462q7 11 3.5 24t-15 19.5t-24 3.5t-19.5 -15q-19 -33 -67.5 -56t-97 -23t-97 23.5t-67.5 56.5q-7 11 -19.5 14.5t-24 -3t-15 -19.5t3.5 -24q29 -52 93.5 -82t126.5 -30q60 0 124.5 30t94.5 81zM704 192q40 0 68 28t28 68v416q0 40 -28 68t-68 28h-576q-40 0 -68 -28
t-28 -68v-416q0 -40 28 -68t68 -28v0v-160q0 -22 20 -30q6 -2 12 -2q14 0 23 10l171 182h350zM193 220v1.5v2.5q0 13 -9 22.5t-23 9.5h-33q-13 0 -22.5 9.5t-9.5 22.5v416q0 13 9.5 22.5t22.5 9.5h576q13 0 22.5 -9.5t9.5 -22.5v-416q0 -13 -9.5 -22.5t-22.5 -9.5h-364h-0.5
h-0.5q-3 0 -9 -2h-1t-2 -1q-2 -1 -7 -5l-1 -0.5t-2 -1.5h-0.5h-0.5l-124 -133zM896 608q-13 0 -22.5 -9.5t-9.5 -23t9.5 -22.5t23 -9t22.5 -9.5t9 -22.5v-352q0 -14 -9 -23t-23 -9h-32q-13 0 -22.5 -9.5t-9.5 -22.5v-1v0v0v-50l-73 73q-9 10 -23 10v0h-160q-13 0 -22.5 -9.5
t-9.5 -22.5t9.5 -22.5t22.5 -9.5h147l118 -119q9 -10 23 -10q6 0 12 3q19 8 20 29v97v0q40 0 68 28t28 68v352q0 39 -28 67.5t-68 28.5z" />
    <glyph glyph-name="liuliangchongzhi" unicode="&#xe64d;" 
d="M942 243l-185 1q-8 -2 -14.5 1.5t-8.5 11.5l-28 88l-87 -410q-2 -21 -14 -21h-31q-7 -2 -13.5 1.5t-8.5 10.5l-109 535l-82 -386q-2 -8 -9 -12.5t-15 -2.5l-29 -1q-7 -2 -14 2t-9 11l-55 171h-148q-8 0 -13 5.5t-5 13.5v37q0 8 5 13.5t13 5.5l184 1q20 0 24 -11l28 -89
l80 419q4 13 17 13h40q7 2 13.5 -1.5t8.5 -10.5l107 -531l80 381q2 8 7.5 12.5t12.5 2.5l32 1q7 2 13.5 -2t8.5 -12l55 -173h149q8 0 13 -5.5t5 -13.5v-37q0 -8 -5 -13.5t-13 -5.5v0z" />
    <glyph glyph-name="attachment" unicode="&#xe6c3;" 
d="M472 777l-379 -399q-72 -75 -71.5 -181.5t74.5 -180.5l3 -4q74 -75 178.5 -75.5t178.5 73.5l500 499q59 59 60 143.5t-56 144.5l-19 -17l-18 -18l4 -4l19 17l18 18q-58 61 -140 60.5t-140 -62.5l-474 -508q-29 -31 -27.5 -73t32.5 -70l11 -11q31 -29 73 -27.5t70 32.5
l369 395q7 8 7 18.5t-8 17.5t-18.5 6.5t-17.5 -7.5l-369 -396q-14 -15 -35 -15.5t-36 13.5l-12 11q-15 14 -15.5 35t13.5 36l474 509q43 45 103 45.5t103 -44.5q11 -11 25 -7t18 16.5t-6 25.5l-4 4q-11 12 -25 7.5t-18 -17t6 -25.5q44 -45 43 -109t-46 -108l-500 -499
q-59 -59 -142.5 -58.5t-142.5 59.5l-3 4q-59 60 -60 145.5t57 146.5l380 399q7 7 7 17.5t-8 18t-18.5 7t-17.5 -7.5v0z" />
    <glyph glyph-name="3column" unicode="&#xe6c4;" 
d="M307 794v-858h51v858h-51v0zM640 794v-858h51v858h-51v0zM896 -13h-768q-32 0 -54.5 22.5t-22.5 54.5v742l-25 -25h870q32 0 54.5 -22.5t22.5 -54.5v-655q0 -10 7.5 -17.5t18 -7.5t18 7.5t7.5 17.5v655q0 53 -37.5 90.5t-90.5 37.5h-870q-11 0 -18.5 -7.5t-7.5 -18.5
v-742q0 -53 37.5 -90.5t90.5 -37.5h768q11 0 18.5 7.5t7.5 18t-7.5 18t-18.5 7.5v0z" />
    <glyph glyph-name="4column" unicode="&#xe6c5;" 
d="M896 -13h-768q-32 0 -54.5 22.5t-22.5 54.5v742l-25 -25h870q32 0 54.5 -22.5t22.5 -54.5v-655q0 -10 7.5 -17.5t18 -7.5t18 7.5t7.5 17.5v655q0 53 -37.5 90.5t-90.5 37.5h-870q-11 0 -18.5 -7.5t-7.5 -18.5v-742q0 -53 37.5 -90.5t90.5 -37.5h768q11 0 18.5 7.5t7.5 18
t-7.5 18t-18.5 7.5v0zM230 794v-858h52v858h-52v0zM486 794v-858h52v858h-52v0zM742 794v-858h52v858h-52v0z" />
    <glyph glyph-name="31fanhui" unicode="&#xf0214;" 
d="M807 679q-80 80 -187.5 108.5t-215 0t-187.5 -108.5q-60 -60 -91.5 -138t-31.5 -157t31.5 -157t91.5 -138q80 -80 187.5 -108.5t215 0t187.5 108.5q60 60 91.5 138t31.5 157t-31.5 157t-91.5 138zM634 205q8 -8 8 -19t-8 -19t-19.5 -8t-19.5 8l-205 198q-8 8 -8 19t8 19
l205 198q8 8 19.5 8t19.5 -8t8 -19t-8 -19l-185 -179z" />
    <glyph glyph-name="31shangsheng" unicode="&#xf021a;" 
d="M511.5 -30q-112.5 0 -207.5 55t-150.5 150.5t-55.5 208.5t55.5 208.5t150.5 150.5t207.5 55t208 -55t151 -150.5t55.5 -208.5t-55.5 -208.5t-151 -150.5t-208 -55zM679 467l-143 143q-5 8 -13 11q-5 2 -10 2h-0.5h-0.5h-0.5h-0.5q-5 0 -10 -2q-8 -3 -13 -11l-143 -143
q-8 -8 -7.5 -19t9 -19.5t19.5 -8.5t18 7q0 1 1 1.5t1 1.5l98 97v-373v-3q0 -10 8 -17t19.5 -7t20 7t8.5 17v376l98 -97q0 -1 1 -2l1 -1q7 -7 18 -7t19.5 8.5t9 19.5t-7.5 19v0z" />
    <glyph glyph-name="31xiajiang" unicode="&#xf0220;" 
d="M511.5 798q112.5 0 208 -55t151 -150.5t55.5 -208.5t-55.5 -208.5t-151 -150.5t-208 -55t-207.5 55t-150.5 150.5t-55.5 208.5t55.5 208.5t150.5 150.5t207.5 55zM679 301q8 8 7.5 19t-9 19.5t-19.5 8.5t-18 -7l-1 -1t-1 -2l-98 -97v376q0 10 -8.5 17t-20 7t-19.5 -7
t-8 -17v-3v-373l-98 97q0 1 -1 1.5t-1 1.5q-7 7 -18 7t-19.5 -8.5t-9 -19.5t7.5 -19l143 -143q5 -8 13 -11q5 -2 10 -2h0.5h0.5h0.5h0.5q5 0 10 2q8 3 13 11l143 143v0z" />
    <glyph glyph-name="discount" unicode="&#xe6c6;" 
d="M856 335l-399 -372q-22 -21 -54 -21t-54 22l-262 254q-22 21 -22 51t21 52l480 491l-17 -7h329q30 0 51.5 -21.5t21.5 -52.5v-317q0 -10 7 -17t17 -7t17.5 7t7.5 17v317q0 51 -36 86.5t-86 35.5h-329q-11 0 -18 -7l-480 -491q-35 -36 -34.5 -86.5t36.5 -85.5l262 -254
q36 -35 87.5 -35.5t87.5 33.5l399 372q8 7 8 17t-7 17.5t-17 7.5t-17 -6v0zM744 488q45 0 77 32t32 77.5t-32 77.5t-77.5 32t-77.5 -32t-32 -77.5t32 -77.5t78 -32v0zM744 536q-26 0 -43.5 18t-17.5 43.5t17.5 43t43 17.5t43.5 -17.5t18 -43t-18 -43.5t-43 -18v0z" />
    <glyph glyph-name="service" unicode="&#xe6c7;" 
d="M538 323q97 0 165.5 69.5t68.5 167.5t-68.5 167.5t-166 69.5t-166 -69.5t-68.5 -167.5t68.5 -167.5t166.5 -69.5v0zM538 366q-80 0 -136 56.5t-56 137t56 137.5t135.5 57t136 -57t56.5 -137.5t-56.5 -137t-135.5 -56.5v0zM1002 -128q0 100 -39 191.5t-104.5 157.5
t-156 105.5t-190 39.5t-190 -39.5t-156 -105.5t-104 -157.5t-38.5 -191.5h42q0 92 35.5 175.5t95 144t142.5 96t173.5 35.5t173.5 -35.5t142.5 -96t95 -144t35.5 -175.5h43v0zM234 323q36 0 61.5 25.5t25.5 62t-25.5 62t-61.5 25.5t-61.5 -25.5t-25.5 -62t25.5 -62
t61.5 -25.5v0zM234 366q-19 0 -32 13t-13 31.5t13 32t31.5 13.5t31.5 -13.5t13 -32t-13 -31.5t-31 -13v0zM831 376q3 1 17.5 5.5t21.5 7.5q1 0 2 1q16 5 35 12l15 5l14 5v15v187v13l-12 6q-4 2 -11 5q-13 7 -24 13q-2 1 -4 1q-13 7 -21 12q-4 2 -6 4q2 -2 4 -7
q-44 103 -135.5 169t-194.5 66q-96 0 -177 -47.5t-128 -129.5t-47 -178q0 -35 6 -69l42 8q-6 30 -6 61q0 129 91 221t219 92q90 0 171 -59t120 -151q3 -7 9.5 -11t33.5 -18q1 -1 3 -2q12 -6 25 -13q7 -3 12 -5l-12 19v-187l14 20q-6 -2 -16 -5q-18 -7 -34 -12q-1 -1 -3 -1
q-21 -8 -33 -13q-7 -3 -11 -4q-3 -2 -5 -3q-1 -1 -4 -2q-15 -8 -7 -24q5 -9 19 -9.5t17 2.5z" />
    <glyph glyph-name="print" unicode="&#xe6c9;" 
d="M24 630h878q30 0 51.5 -21.5t21.5 -51.5v-440l25 24h-147l25 -24v97v25h-25h-682h-25v-25v-97l25 24h-49q-30 0 -51.5 21.5t-21.5 52.5v440l-25 -25v0zM24 679h-24v-24v-440q0 -51 35.5 -87t86.5 -36h49h24v25v97l-24 -24h682l-24 24v-97v-25h24h147h24v25v440
q0 50 -35.5 86t-86.5 36h-878v0zM756 -104l24 25h-536l24 -25v224q0 10 -7 17t-17 7t-17.5 -7t-7.5 -17v-224q0 -10 7.5 -17t17.5 -7h536q10 0 17.5 7t7.5 17v224q0 10 -7.5 17t-17.5 7t-17 -7t-7 -17v-224zM207 459h317v49h-317v-49v0zM219 655v195l-24 -24h634l-24 24
v-195h48v195v25h-24h-634h-24v-25v-195h48v0z" />
    <glyph glyph-name="box" unicode="&#xe6cb;" 
d="M58 634l432 -244q12 -7 24 0l431 244q13 8 12.5 22.5t-13.5 21.5l-431 215q-11 6 -22 0l-432 -215q-13 -7 -13.5 -21.5t12.5 -22.5v0zM82 677l-1 -43l432 216h-22l431 -216l-1 43l-431 -245h24l-432 245v0zM477 391v-470q0 -14 12.5 -21t24.5 0l460 260q13 7 13 21v317
q0 10 -7.5 17t-17.5 7t-17 -7t-7 -17v-317l12 21l-460 -259l36 -22v470q0 10 -7 17.5t-17 7.5t-17.5 -7.5t-7.5 -17.5v0zM514 -58l-431 260l12 -21v460q0 11 -7.5 18t-17.5 7t-17 -7t-7 -18v-460q0 -14 12 -21l431 -260q9 -5 19 -2.5t15 11t2.5 18.5t-11.5 15v0zM173 448
l144 -87q8 -5 18 -2.5t15 11.5t2.5 18.5t-10.5 14.5l-144 87q-9 5 -18.5 2.5t-15 -11t-3 -18.5t11.5 -15v0z" />
    <glyph glyph-name="process" unicode="&#xe6ce;" horiz-adv-x="1028" 
d="M965 354q-7 152 -105 268t-245 150q-10 2 -18.5 -3.5t-11 -15.5t3 -19t15.5 -11q131 -30 217.5 -133.5t93.5 -237.5q1 -11 8.5 -18t18 -6.5t17.5 8.5t6 18v0zM387 765q-144 -42 -235 -162.5t-91 -271.5q0 -67 19 -129q3 -10 12 -15t19 -2t15 12t2 19q-17 56 -17 115
q0 134 81 241.5t209 144.5q10 3 15 12t2 19t-12 15t-19 2v0zM196 8q64 -62 146 -96t172 -34q96 0 183.5 39t152.5 111q7 7 6 17.5t-8.5 17.5t-18 6.5t-17.5 -8.5q-57 -63 -134.5 -98t-163.5 -35q-80 0 -153 30t-129 86q-8 7 -18.5 7t-17.5 -7.5t-7 -18t7 -17.5v0zM498 611
q55 0 93.5 38.5t38.5 93t-38.5 93.5t-93 39t-93.5 -39t-39 -93.5t39 -93t93 -38.5v0zM498 661q-34 0 -58 24t-24 58t24 58t58 24t58 -24t24 -58t-24 -58t-58 -24v0zM132 -30q55 0 93.5 38.5t38.5 93t-38.5 93.5t-93.5 39t-93.5 -39t-38.5 -93.5t38.5 -93t93.5 -38.5v0z
M132 20q-34 0 -58 24t-24 57.5t24 57.5t58 24t58 -24t24 -57.5t-24 -57.5t-58 -24v0zM895 0q55 0 93.5 39t38.5 93.5t-38.5 93t-93 38.5t-93.5 -38.5t-39 -93t39 -93.5t93 -39v0zM895 50q-34 0 -58 24t-24 58t24 58t58 24t58 -24t24 -58t-24 -58t-58 -24v0z" />
    <glyph glyph-name="bags" unicode="&#xe6d1;" 
d="M91 360q0 90 64.5 154.5t155.5 64.5h390q91 0 155 -64t64 -155v-415q0 -10 -7 -17t-17 -7h-780q-10 0 -17.5 7t-7.5 17v415v0zM43 360v-415q0 -30 21.5 -51.5t51.5 -21.5h780q30 0 51.5 21.5t21.5 51.5v415q0 111 -78.5 189.5t-189.5 78.5h-390q-111 0 -189.5 -78.5
t-78.5 -189.5v0zM286 433q0 10 7.5 17t17.5 7t17 -7t7 -17v-73q0 -10 -7 -17.5t-17 -7.5t-17.5 7t-7.5 18v73v0zM238 433v-73q0 -31 21 -52.5t51.5 -21.5t52 21.5t21.5 52.5v73q0 30 -21.5 51.5t-52 21.5t-51.5 -21.5t-21 -51.5v0zM652 433q0 10 7 17t17.5 7t17.5 -7t7 -17
v-73q0 -10 -7 -17.5t-17.5 -7.5t-17.5 7t-7 18v73v0zM603 433v-73q0 -31 21.5 -52.5t52 -21.5t52 21.5t21.5 52.5v73q0 30 -21.5 51.5t-52 21.5t-52 -21.5t-21.5 -51.5v0zM335 482v195q0 70 50 120t121 50t121 -50t50 -120v-195h48v195q0 90 -64 154.5t-155 64.5
t-155.5 -64.5t-64.5 -154.5v-195h49v0zM79 43h683q10 0 17 7t7 17t-7 17t-17 7h-683q-10 0 -17 -7t-7 -17t7 -17t17 -7v0z" />
    <glyph glyph-name="electrical" unicode="&#xe6d4;" 
d="M371 125h300l-25 25v-100l25 25h-300l25 -25v100l-25 -25v0zM371 175h-25v-25v-100v-25h25h300h25v25v100v25h-25h-300v0zM271 650v200l-25 -25h150l-25 25v-200h50v200v25h-25h-150h-25v-25v-200h50v0zM671 650v200l-25 -25h150l-25 25v-200h50v200v25h-25h-150h-25v-25
v-200h50v0zM518 612h402l3 1q11 1 15 -1t5 -7q5 -19 -8 -60q-21 -69 -61 -132q-19 -31 -60 -75q-17 -20 -38 -42q-38 -38 -84 -80q-14 -13 -27 -25q-7 -6 -11 -9l17 6h-150v-50h150h9l7 6q4 3 11 9q13 13 28 26q46 43 85 82q22 23 41 43q43 48 65 83q42 67 66 143
q17 55 8 87q-6 24 -25.5 36t-47.5 9h2h-402v-50v0zM520 662h-402h2q-28 3 -47.5 -9t-25.5 -36q-9 -32 8 -87q24 -76 66 -143q23 -35 65 -83q19 -20 41 -43q39 -39 85 -82q15 -13 28 -26q7 -6 11 -9l7 -6h9h175v50h-175l17 -6q-4 3 -11 9q-13 12 -27 25q-46 42 -84 80
q-21 22 -38 42q-41 44 -60 75q-40 63 -61 132q-13 41 -8 60q1 5 5 7t15 1l3 -1h402v50v0zM396 38v-137q0 -11 7.5 -18t17.5 -7t17.5 7t7.5 18v137q0 10 -7.5 17.5t-17.5 7.5t-17.5 -7.5t-7.5 -17.5v0zM596 38v-137q0 -11 7 -18t17.5 -7t18 7t7.5 18v137q0 10 -7.5 17.5
t-18 7.5t-17.5 -7.5t-7 -17.5v0z" />
    <glyph glyph-name="home1" unicode="&#xe6d7;" horiz-adv-x="1028" 
d="M888 38q1 4 2 12q3 16 6 33q12 55 31 100q4 9 8 17q11 24 33 54q1 2 15 19t25 32t12 19q13 39 3.5 75.5t-36.5 59t-67.5 29.5t-88.5 -13q-6 -2 -10 -7l-182 -230l19 9h-291q-10 0 -17 -7t-7 -17t7 -17.5t17 -7.5h291q12 0 19 10l182 230l-10 -8q64 26 103.5 -6t21.5 -85
l-6 -7q-4 -4 -6 -7q-22 -27 -33 -42q-25 -34 -39 -62l-8 -20q-20 -49 -33 -108q-4 -18 -7 -35q-1 -9 -2 -14q-1 -10 5 -18t16 -9.5t18 5t9 16.5v0zM188 44q-1 5 -2 14q-3 17 -7 35q-13 59 -33 108q-5 10 -9 20q-13 28 -38 62q-12 15 -34 42q-2 3 -6 7l-6 7q-17 53 22.5 85
t103.5 6l-10 8l106 -135q6 -8 16 -9t18 5t9 16t-5 18l-106 135q-4 5 -10 7q-37 15 -72 14.5t-60 -14.5t-43 -37t-21 -52.5t6 -61.5q2 -4 13 -19t24.5 -32t15.5 -19q22 -30 33 -54q4 -8 8 -17q18 -45 30 -100q4 -17 7 -33q1 -8 2 -12q1 -10 9 -16.5t18 -5t16 9.5t5 18v0z
M197 -68v97l-24 -25h691l-24 25v-97q0 -10 7 -17.5t17 -7.5t17 7.5t7 17.5v97q0 10 -7 17t-17 7h-691q-10 0 -17 -7t-7 -17v-97q0 -10 7 -17.5t17 -7.5t17 7.5t7 17.5v0zM173 477v170q0 30 21.5 51.5t51.5 21.5h509q30 0 51.5 -21.5t21.5 -51.5v-170h48v170q0 50 -35.5 85.5
t-85.5 35.5h-509q-50 0 -85.5 -35.5t-35.5 -85.5v-170h48v0z" />
    <glyph glyph-name="electronics" unicode="&#xe6da;" 
d="M66 742h798q29 0 49.5 -20.5t20.5 -49.5v-540l24 24h-798q-29 0 -49.5 20.5t-20.5 49.5v540l-24 -24v0zM66 789h-23v-23v-540q0 -48 34 -82.5t83 -34.5h798h23v23v540q0 49 -34 83t-83 34h-798v0zM408 130l-70 -164q-4 -9 -0.5 -18t12.5 -13t18 -0.5t13 12.5l70 164
q4 9 0.5 18t-12.5 13t-18 0.5t-13 -12.5v0zM587 47l82 -105q6 -8 16 -9t17.5 5t8.5 15.5t-4 17.5l-83 105q-6 8 -15.5 9t-17 -5t-9 -15.5t4.5 -17.5v0zM242 -79h563q10 0 17 7t7 16.5t-7 16.5t-17 7h-563q-10 0 -16.5 -7t-6.5 -16.5t6.5 -16.5t16.5 -7v0z" />
    <glyph glyph-name="gifts" unicode="&#xe6db;" 
d="M151 340v-328q0 -27 19.5 -46t46.5 -19h568q27 0 46 19t19 46v317h-44v-317q0 -9 -6 -15.5t-15 -6.5h-568q-9 0 -15.5 6.5t-6.5 15.5v328h-44v0zM544 -31v622h-43v-622h43v0zM86 569h742q27 0 46.5 -19t19.5 -46v-153l21 22h-742q-27 0 -46 19t-19 46v153l-22 -22v0z
M86 613h-22v-22v-153q0 -45 32 -77t77 -32h742h22v22v153q0 45 -32 77t-77 32h-742v0zM457 635h131l-22 21v-65l22 22h-131l22 -22v65l-22 -21v0zM457 678h-22v-22v-65v-22h22h131h22v22v65v22h-22h-131v0zM552 645q1 2 5 7q6 10 14 21q23 34 45 63q13 16 24 30
q20 24 36.5 39t20.5 15q26 0 64 -24t60 -54q9 -12 -10 -53q-4 -8 -1 -16.5t11.5 -12.5t17 -1t11.5 11q31 65 6 98q-29 39 -75.5 67.5t-83.5 28.5q-32 0 -91 -70q-12 -15 -25 -32q-22 -29 -46 -64q-8 -11 -15 -22q-3 -5 -5 -8q-5 -7 -3 -16t9.5 -14t16.5 -3t14 10v0zM538 668
q-2 3 -5 8q-7 11 -15 22q-24 35 -46 64q-13 17 -25 32q-59 70 -91 70q-37 0 -83.5 -28.5t-75.5 -67.5q-25 -33 5 -97q9 -19 23 -41q12 -19 26 -38q7 -9 12 -15l33 28q-4 5 -10 14q-13 17 -24 34q-13 20 -20 37q-19 40 -10 52q22 30 60 54t64 24q4 0 20.5 -15t36.5 -39
q11 -14 24 -30q22 -29 45 -63q8 -11 14 -21q4 -5 5 -7l37 23v0z" />
    <glyph glyph-name="lights" unicode="&#xe6de;" 
d="M680 -67q-9 0 -23 -1q-29 0 -57 -1q-40 -1 -74 -1q-67 -1 -105 -1q-22 1 -33 1q-5 1 -7 1q1 0 2 -1q14 -6 14 -21v93v77v42q0 11 -8 18q-4 3 -9 8q-12 11 -25 24q-40 40 -74 81q-68 84 -92 154q-12 35 -12 65q0 96 47.5 178t129 129.5t178 47.5t178 -47.5t129 -129.5
t47.5 -178q0 -27 -11 -58q-25 -73 -105 -161q-37 -41 -82 -81q-14 -12 -27 -23q-6 -5 -10 -8q-9 -7 -9 -19v-114l24 24h-281q-10 0 -17.5 -7t-7.5 -17.5t7.5 -17.5t17.5 -7h281q10 0 17 7t7 18v114l-9 -20q4 4 11 9q14 12 28 25q47 41 86 84q87 96 116 178q13 39 13 74
q0 110 -54 203t-147 147t-202.5 54t-202.5 -54t-147 -147t-54 -203q0 -38 15 -81q27 -78 101 -169q35 -43 77 -85l25 -25q7 -6 10 -9l-8 19v-42v-77v-93q0 -17 16 -24q3 -1 7 -2q5 -1 13 -1q13 -1 36 -2q39 0 107 1q34 0 74 1q29 1 57 2h23q10 1 17 8t7 17.5t-7.5 17
t-17.5 6.5v0zM380 344l122 -122q7 -7 16.5 -7.5t17.5 6.5l122 110q7 6 8 16.5t-6 18t-17 8t-18 -6.5l-122 -110l34 -1l-123 122q-7 8 -17 8t-17 -7.5t-7 -17.5t7 -17v0zM495 227v-208h49v208h-49v0z" />
    <glyph glyph-name="toys" unicode="&#xe6e1;" 
d="M523 53v0q87 0 147.5 43t60.5 100.5t-60.5 100.5t-147.5 43t-148 -43t-61 -100.5t61 -100.5t148 -43v0zM523 3v0q-107 0 -183 56.5t-76 137t76 137t183 56.5t182.5 -56.5t75.5 -137t-75.5 -137t-182.5 -56.5v0zM329 398q37 0 63 26t26 63t-26 63.5t-63 26.5t-63.5 -26.5
t-26.5 -63.5t26.5 -63t63.5 -26v0zM329 448q-17 0 -28.5 11.5t-11.5 28t11.5 28t28 11.5t28 -11.5t11.5 -28t-11.5 -28t-27.5 -11.5v0zM717 398q37 0 63 26t26 63t-26 63.5t-63.5 26.5t-63.5 -26.5t-26 -63.5t26 -63t64 -26v0zM717 448q-17 0 -28.5 11.5t-11.5 28t11.5 28
t28 11.5t28 -11.5t11.5 -28t-11.5 -28t-27.5 -11.5v0zM932 129q68 105 68 229q0 91 -38 173.5t-102 142t-152 94.5t-185 35t-185.5 -35t-152.5 -94.5t-102 -142t-38 -173.5t38 -173.5t102 -142t152.5 -94.5t185.5 -35q91 0 174.5 30.5t149.5 87.5q8 7 8.5 17.5t-6 18
t-17 8.5t-18.5 -6q-123 -106 -291 -106q-117 0 -215.5 53t-155.5 144t-57 198t57 198t155.5 144t215 53t215 -53t155.5 -144t57 -198q0 -109 -60 -202q-6 -9 -3.5 -19t11 -15.5t19 -3.5t15.5 11v0zM933 555q32 25 49.5 62t17.5 78q0 74 -52.5 127t-127.5 53q-54 0 -99 -30
t-66 -80l46 -20q15 36 47.5 58t71.5 22q54 0 92 -38t38 -92q0 -62 -48 -101l31 -39v0zM132 594q-48 39 -48 101q0 54 38 92t91 38q40 0 72.5 -22t47.5 -58l46 20q-21 50 -66 80t-100 30q-74 0 -126.5 -53t-52.5 -127q0 -41 17.5 -78t48.5 -62l32 39v0zM535 204q28 0 48.5 20
t20.5 49t-20.5 49t-49 20t-49 -20t-20.5 -49t20.5 -49t49.5 -20v0zM535 254q-8 0 -14 5.5t-6 13.5t6 13.5t13.5 5.5t13.5 -5.5t6 -13.5t-6 -13.5t-13 -5.5v0z" />
    <glyph glyph-name="jewelry" unicode="&#xe6e4;" horiz-adv-x="1028" 
d="M793 769q-7 10 -19 10h-248h-51q-2 0 -2.5 -5t1.5 -12t3.5 -14t4 -13.5t2.5 -7.5q0 -2 10 -0.5t11 0.5l162 -265l-2 21l-186 -489q-3 -7 -4 -13q-2 -18 13 -27q14 -8 29 1q5 4 10 9l420 407q7 7 7 17t-7 17.5t-17 7.5t-17 -7l-421 -408q6 7 21 -2.5t11 -18.5l187 489
q4 10 -2 20l-162 280l-21 -36h248l-19 10l204 -269q6 -8 16 -9.5t18 4.5t9.5 16t-4.5 18zM773 721l-97 -226l-14 -34h37h292v48h-292l22 -34l97 227l-45 19v0zM451 766l-161 -280l-6 -9l4 -11l174 -488q-4 9 11 18t21 2l-445 493l2 -31l194 280l-20 -10h247l-21 36v0z
M494 742l21 37h-43h-247h-13l-7 -11l-194 -280l-11 -16l13 -14l445 -493q6 -6 11 -9q15 -10 29 -1.5t13 26.5q-1 6 -4 13l-173 488l-2 -20l162 280v0zM192 702l97 -227l22 34h-259v-48h259h37l-15 34l-97 226l-44 -19v0zM310 473h656q11 0 18 7.5t7 17.5t-7 17t-18 7h-656
q-10 0 -17 -7t-7 -17t7 -17.5t17 -7.5v0z" />
    <glyph glyph-name="rfqquantity" unicode="&#xe6e8;" 
d="M933 5q-54 2 -130 24q74 64 115.5 152t41.5 189q0 91 -35.5 174.5t-95.5 144t-143 96t-174 35.5q-121 0 -224.5 -60t-163.5 -163.5t-60 -224.5q0 -94 38.5 -180.5t107.5 -151.5v0v0q6 -6 15 -6q10 0 16.5 6t6.5 16q0 9 -7 16v0q-64 59 -98 136.5t-34 163.5q0 109 54 202
t147 147t202 54t202 -54t147 -147t54 -202q0 -97 -44 -182.5t-119 -142.5q-9 4 -52 25q-95 48 -193.5 45t-151.5 -47q-42 -37 -33 -72q8 -37 60 -56q65 -18 130 -18q138 0 251 74q88 -32 172 -38q25 0 25 22q-4 23 -27 23v0zM512 -31q-56 0 -116 18q-26 7 -30 22
q-3 10 18 27q20 16 56.5 26t80.5 10q85 0 159 -40l27 -14q-92 -49 -195 -49v0z" />
    <glyph glyph-name="atmaway" unicode="&#xe6e9;" 
d="M784 257v0q-15 0 -26 29.5t-11 71t11 70.5t26.5 29t26.5 -29t11 -70.5t-11 -71t-27 -29.5v0zM507 218v0q-16 0 -27 25.5t-11 62t11 62t26.5 25.5t26.5 -25.5t11 -62t-11 -62t-26 -25.5v0zM298 713q-112 -55 -179.5 -152t-70.5 -211v-11q0 -10 7 -17t16.5 -7t16.5 7t7 17
v10q3 100 63 186t161 136q9 4 12 13.5t-1 18t-13.5 12t-18.5 -1.5v0zM496 -88q20 -2 40 -2q132 0 244.5 57t178 156t65.5 216t-65.5 215.5t-178 155.5t-244.5 57h4q-2 2 -10 9q-24 22 -45 35q-81 52 -211 52q-10 0 -17 -7t-7 -17t7 -17t17 -7q117 0 186 -44q2 -2 19.5 -16
t33.5 -24.5t23 -10.5q120 0 221.5 -51.5t160 -139t58.5 -190.5t-58.5 -191t-160 -139t-221.5 -51q-19 0 -37 1q-10 1 -17.5 -5.5t-8 -16.5t6 -17.5t16.5 -7.5v0zM238 -138q99 0 168.5 70t69.5 168.5t-69.5 168.5t-168.5 70t-168.5 -70t-69.5 -168.5t69.5 -168.5t168.5 -70v0
zM238 -90q-79 0 -134.5 56t-55.5 135t55.5 134.5t134.5 55.5t135 -55.5t56 -134.5t-56 -135t-135 -56v0zM214 205v-142q0 -10 7 -17t17 -7t17 7t7 17v142q0 10 -7 17t-17 7t-17 -7t-7 -17v0zM304 50l-67 76q-6 7 -16 8t-17.5 -5.5t-8 -16.5t5.5 -18l67 -76q6 -7 16 -7.5
t17.5 6t8 16t-5.5 17.5v0z" />
    <glyph glyph-name="scanning" unicode="&#xe6ec;" 
d="M910 477q-9 0 -15 6t-6 15v259q0 13 -9.5 22.5t-22.5 9.5q-236 0 -258 -1q-8 0 -14.5 5t-8.5 13q-1 9 4 16t14 9q6 1 263 1q31 0 53 -22t22 -53v-259q0 -9 -6.5 -15t-15.5 -6v0zM85 477q-8 0 -14.5 6t-6.5 15v259q0 31 22 53t53 22q257 0 263 -1q9 -2 14 -9t4 -16
q-2 -8 -8.5 -13t-14.5 -5q-22 1 -258 1q-13 0 -22.5 -9.5t-9.5 -22.5v-259q0 -9 -6.5 -15t-15.5 -6v0zM857 -78q-257 0 -263 1q-9 2 -14 9t-4 16q2 8 8.5 13t14.5 5q22 -1 258 -1q13 0 22.5 9.5t9.5 22.5v259q0 9 6 15t15 6t15.5 -6t6.5 -15v-259q0 -31 -22 -53t-53 -22v0z
M139 -78q-31 0 -53 22t-22 53v259q0 9 6.5 15t15 6t15 -6t6.5 -15v-259q0 -13 9.5 -22.5t22.5 -9.5q236 0 258 1q8 0 14.5 -5t8.5 -13q1 -9 -4 -16t-14 -9q-6 -1 -263 -1v0zM984 362h-941q-9 0 -15.5 6.5t-6.5 15.5t6.5 15t15.5 6h941q8 0 14.5 -6t6.5 -15t-6.5 -15.5
t-14.5 -6.5v0z" />
    <glyph glyph-name="filter1" unicode="&#xe6f1;" 
d="M1024 776.5q0 -49.5 -35 -84.5l-323 -308v-486q0 -11 -7.5 -18.5t-18.5 -7.5t-18.5 7.5t-7.5 18.5v497q0 12 8 19l331 315q20 19 20 47.5t-20 48.5t-49 20h-784q-29 0 -49 -20t-20 -49q0 -28 20 -48l305 -315q8 -7 8 -18v-369q0 -11 -7.5 -18.5t-18 -7.5t-18 7.5
t-7.5 18.5v358l-298 308q-35 35 -35 84.5t35 84.5t85 35h784q50 0 85 -35t35 -84.5z" />
    <glyph glyph-name="pin" unicode="&#xe6f2;" horiz-adv-x="1025" 
d="M51 -128q-21 0 -36 15q-13 14 -14.5 32.5t9.5 33.5l213 289l-167 167q-12 12 -14 29.5t6 32.5l7.5 10t15 17t23 20t32 18t41 13.5t51 4t60.5 -7.5q2 -1 8 -1q13 -1 21 -2q24 -4 63 13.5t76 49.5q36 30 57 62.5t21 57.5v23v35.5t8 39.5t24 38q31 32 75 34t78 -26
q1 -1 3 -2v0q110 -108 279 -279q34 -33 34 -80.5t-34 -81.5q-16 -16 -38 -24t-40 -8h-35q-16 1 -23 1q-48 0 -104 -61q-37 -40 -59.5 -86.5t-20.5 -72.5q3 -25 4 -31q8 -30 8 -58.5t-4.5 -50t-14 -40.5t-18.5 -31t-19.5 -23t-16 -15t-10.5 -7q-15 -9 -32.5 -7t-30.5 14
l-178 179q-7 7 -7 18t7.5 18.5t18 7.5t17.5 -8l179 -178q3 2 6.5 5t11.5 10.5t14.5 17t13 24t9.5 30.5t2.5 38t-6.5 46q-1 5 -4 36q-4 39 22.5 95.5t69.5 103.5q71 77 142 77q8 0 24 -1q29 -1 46.5 2t29.5 15q19 19 19 45t-19 45q-261 261 -279 278q-18 15 -42.5 13.5
t-41.5 -18.5q-12 -12 -15 -29.5t-2 -45.5q1 -16 1 -25q0 -36 -26 -78.5t-71 -80.5q-42 -36 -91 -58.5t-89 -16.5q-7 1 -17 2q-6 0 -10 1q-3 0 -7 1q-31 6 -53.5 7t-42.5 -5.5t-32.5 -13t-23 -16.5t-14.5 -15t-7 -9l183 -182q16 -15 2 -33l-226 -306l239 174q8 7 18.5 5
t17 -10.5t4.5 -19t-10 -16.5l-239 -174q-13 -10 -30 -10z" />
    <glyph glyph-name="productfeatures" unicode="&#xe6f4;" horiz-adv-x="1025" 
d="M302 391l-147 88q-8 6 -18 3.5t-15.5 -11.5t-3 -19t11.5 -15l147 -89q9 -5 19 -2.5t15 11.5t2.5 19t-11.5 15zM459 -125q10 -3 19 2q-9 -5 -19 -2zM302 391l-147 88q-8 6 -18 3.5t-15.5 -11.5t-3 -19t11.5 -15l147 -89q9 -5 19 -2.5t15 11.5t2.5 19t-11.5 15zM302 391
l-147 88q-8 6 -18 3.5t-15.5 -11.5t-3 -19t11.5 -15l147 -89q9 -5 19 -2.5t15 11.5t2.5 19t-11.5 15zM302 391l-147 88q-8 6 -18 3.5t-15.5 -11.5t-3 -19t11.5 -15l147 -89q9 -5 19 -2.5t15 11.5t2.5 19t-11.5 15zM302 391l-147 88q-8 6 -18 3.5t-15.5 -11.5t-3 -19
t11.5 -15l147 -89q9 -5 19 -2.5t15 11.5t2.5 19t-11.5 15zM302 391l-147 88q-8 6 -18 3.5t-15.5 -11.5t-3 -19t11.5 -15l147 -89q9 -5 19 -2.5t15 11.5t2.5 19t-11.5 15zM478 -123q-9 -5 -19 -2q10 -3 19 2zM857.5 -73q-10.5 0 -18 7.5t-7.5 18.5v192q0 11 8 19l127 121
q6 6 6 15t-6.5 15t-14.5 6h-310q-9 0 -15.5 -6t-6.5 -15t7 -16l117 -121q8 -8 8 -18v-142q0 -10 -7.5 -17.5t-18.5 -7.5t-18.5 7.5t-7.5 17.5v132l-110 114q-21 21 -21 51t21.5 51.5t51.5 21.5h310q30 0 51 -21.5t21 -51.5t-21 -52l-120 -114v-181q0 -11 -7.5 -18.5
t-18 -7.5zM920 630q8 5 11 16q2 17 -14 25l-440 220q-11 6 -23 0l-440 -220q-14 -9 -14 -37v-470q0 -14 12 -21q431 -261 438 -264q18 -9 32 -2l144 83q9 6 11.5 16t-2.5 19q-5 10 -15.5 12.5t-19.5 -2.5l-99 -58v1l-10 -6v442l389 221zM440 384v-441l-390 235v428zM466 428
l-388 219l388 194l387 -194z" />
    <glyph glyph-name="supplierfeatures" unicode="&#xe6f5;" 
d="M463 340q-115 0 -196.5 81.5t-81.5 196.5t81.5 196.5t196.5 81.5t196.5 -81.5t81.5 -196.5t-81.5 -196.5t-196.5 -81.5zM463 845q-94 0 -160.5 -66.5t-66.5 -160.5t66.5 -160.5t160.5 -66.5t160.5 66.5t66.5 160.5t-66.5 160.5t-160.5 66.5zM34 -24q-3 0 -6 1
q-10 2 -15.5 11t-3.5 19q20 92 73 169.5t131 130.5q9 6 19.5 4t16.5 -11t4 -19t-11 -16q-70 -48 -117.5 -117.5t-65.5 -151.5q-2 -9 -9 -14.5t-16 -5.5zM609 -24h-575q-11 0 -18 7.5t-7 18t7 18t18 7.5h575q11 0 18.5 -7.5t7.5 -18t-7.5 -18t-18.5 -7.5zM854.5 -128
q-10.5 0 -18 7.5t-7.5 17.5v191q0 11 8 19l127 120q6 6 6 15t-6.5 15.5t-15.5 6.5h-307q-9 0 -15.5 -6.5t-6.5 -15.5t6 -15l117 -121q8 -8 8 -18v-140q0 -11 -7.5 -18.5t-18 -7.5t-18 7.5t-7.5 18.5v130l-110 113q-21 21 -21 51t21.5 51t51.5 21h307q30 0 51.5 -21t21.5 -51
t-22 -51l-119 -114v-180q0 -10 -7.5 -17.5t-18 -7.5z" />
    <glyph glyph-name="link1" unicode="&#xe6f7;" horiz-adv-x="1025" 
d="M331.5 564.5q-8.5 -8.5 -8.5 -20t9 -20.5l321 -321q9 -9 20.5 -9t20 8.5t8.5 20t-8 20.5l-322 322q-9 8 -20.5 8t-20 -8.5zM96 836l-36 -36q-60 -60 -60 -145t60 -145l127 -127q46 -46 110.5 -56.5t120.5 16.5q1 0 1 0.5t1 0.5h1v0q4 2 7 6q9 8 9 20t-9 20q-14 15 -33 6
v0q-42 -20 -90 -12t-82 43l-120 119q-45 45 -45 109t45 109l29 29q45 45 109 45t109 -45l119 -120q35 -35 43 -83.5t-13 -91.5v0v0v0q-7 -18 6 -31q9 -8 21 -8t20 8q4 4 6 8v0q28 57 18 122t-57 112l-127 127q-60 60 -145 60t-145 -60zM963 -31l-36 -36q-60 -60 -144.5 -60
t-144.5 60l-127 126q-47 47 -57.5 111.5t17.5 120.5v0.5t0.5 1t0.5 1.5v0q2 4 5 7q8 8 20 8t21 -8q14 -15 5 -33v0q-20 -42 -11.5 -90t42.5 -82l120 -120q45 -45 108.5 -45t108.5 45l29 29q45 45 45 108.5t-45 108.5l-119 120q-35 35 -84 43t-91 -13v0v0v0q-18 -7 -31 6
q-9 8 -9 20t9 21q4 3 7 5v0q57 29 122.5 18.5t112.5 -57.5l126 -127q60 -60 60 -144.5t-60 -144.5z" />
    </font>
</defs>
</svg>
